<?xml version="1.0" encoding="utf-8"?>
<!-- Generator: Adobe Illustrator 24.1.2, SVG Export Plug-In . SVG Version: 6.00 Build 0)  -->
<svg version="1.1" id="Layer_1" xmlns="http://www.w3.org/2000/svg" xmlns:xlink="http://www.w3.org/1999/xlink" x="0px" y="0px"
	 viewBox="0 0 21 18" style="enable-background:new 0 0 21 18;" xml:space="preserve">
<path d="M0,18V3c0-0.8,0.3-1.5,0.9-2.1C1.5,0.3,2.2,0,3,0h4c0.8,0,1.5,0.3,2.1,0.9C9.7,1.5,10,2.2,10,3v15H0z M7,12h1V7H7V12z M2,16
	h6v-2H7c-0.6,0-1-0.2-1.4-0.6C5.2,13,5,12.6,5,12V7c0-0.6,0.2-1,0.6-1.4C6,5.2,6.4,5,7,5h1V3c0-0.3-0.1-0.5-0.3-0.7
	C7.5,2.1,7.3,2,7,2H3C2.7,2,2.5,2.1,2.3,2.3C2.1,2.5,2,2.7,2,3V16z M14.2,10.6c-0.4,0-0.9-0.1-1.3-0.2c-0.4-0.1-0.8-0.3-1.2-0.4
	l0.6-1.9c0.3,0.1,0.7,0.3,1,0.4c0.3,0.1,0.6,0.1,0.9,0.1c0.2,0,0.4,0,0.6-0.1c0.2-0.1,0.4-0.2,0.6-0.3c0.4-0.3,0.8-0.5,1.2-0.6
	s0.8-0.2,1.1-0.2c0.4,0,0.8,0.1,1.3,0.2c0.4,0.1,0.9,0.3,1.2,0.4L19.7,10c-0.4-0.1-0.7-0.3-1.1-0.3c-0.3-0.1-0.6-0.2-0.8-0.2
	c-0.2,0-0.4,0-0.7,0.1c-0.2,0.1-0.5,0.2-0.8,0.4c-0.4,0.2-0.7,0.4-1.1,0.5C15,10.5,14.6,10.6,14.2,10.6z M14.2,6.7
	c-0.4,0-0.9-0.1-1.3-0.2s-0.8-0.3-1.2-0.4l0.6-1.9c0.4,0.2,0.8,0.3,1.1,0.4c0.3,0.1,0.6,0.1,0.8,0.1c0.2,0,0.4,0,0.6-0.1
	c0.2-0.1,0.4-0.2,0.6-0.3c0.4-0.3,0.8-0.5,1.2-0.6c0.4-0.1,0.8-0.2,1.1-0.2c0.4,0,0.8,0.1,1.3,0.2c0.4,0.1,0.8,0.3,1.3,0.4l-0.6,1.9
	c-0.4-0.2-0.8-0.3-1.1-0.4c-0.3-0.1-0.6-0.1-0.8-0.1c-0.2,0-0.4,0-0.7,0.1c-0.2,0.1-0.5,0.2-0.8,0.4c-0.3,0.2-0.6,0.4-1,0.5
	C15,6.6,14.6,6.7,14.2,6.7z M14.2,14.5c-0.4,0-0.9-0.1-1.3-0.2c-0.4-0.1-0.8-0.3-1.2-0.4l0.6-1.9c0.4,0.2,0.7,0.3,1,0.4
	c0.3,0.1,0.6,0.1,0.9,0.1c0.2,0,0.4,0,0.6-0.1c0.2-0.1,0.4-0.2,0.6-0.3c0.4-0.3,0.8-0.5,1.2-0.6c0.4-0.1,0.8-0.2,1.2-0.2
	c0.4,0,0.8,0.1,1.3,0.2c0.4,0.1,0.8,0.3,1.2,0.4l-0.6,1.9c-0.4-0.2-0.8-0.3-1.1-0.4c-0.3-0.1-0.6-0.1-0.8-0.1c-0.2,0-0.5,0-0.7,0.1
	c-0.2,0.1-0.5,0.2-0.7,0.4c-0.3,0.2-0.6,0.4-1,0.5C15,14.4,14.6,14.5,14.2,14.5z M8,16V2.8V3V16z"/>
</svg>
