<?xml version="1.0" encoding="utf-8"?>
<!-- Generator: Adobe Illustrator 24.1.2, SVG Export Plug-In . SVG Version: 6.00 Build 0)  -->
<svg version="1.1" id="Layer_1" xmlns="http://www.w3.org/2000/svg" xmlns:xlink="http://www.w3.org/1999/xlink" x="0px" y="0px"
	 viewBox="0 0 16 16" style="enable-background:new 0 0 16 16;" xml:space="preserve">
<g>
	<g>
		<path d="M8,3.5c0-0.1-0.1-0.3-0.1-0.4C7.8,3,7.6,3,7.5,3S7.2,3,7.1,3.1C7.1,3.2,7,3.4,7,3.5V9c0,0.1,0,0.2,0.1,0.3
			c0,0.1,0.1,0.1,0.2,0.2l3.5,2c0.1,0.1,0.2,0.1,0.4,0c0.1,0,0.2-0.1,0.3-0.2c0.1-0.1,0.1-0.2,0-0.4c0-0.1-0.1-0.2-0.2-0.3L8,8.7
			V3.5z"/>
		<path d="M8,16c2.1,0,4.2-0.8,5.7-2.3C15.2,12.1,16,10.1,16,8c0-2.1-0.8-4.2-2.3-5.7C12.2,0.8,10.1,0,8,0C5.9,0,3.8,0.8,2.3,2.3
			C0.8,3.8,0,5.9,0,8c0,2.1,0.8,4.2,2.3,5.7C3.8,15.1,5.9,16,8,16z M15,8c0,1.9-0.7,3.6-2.1,4.9C11.6,14.3,9.9,15,8,15
			s-3.6-0.7-4.9-2.1C1.7,11.6,1,9.8,1,8S1.7,4.4,3.1,3C4.4,1.7,6.1,1,8,1s3.6,0.7,4.9,2.1C14.3,4.4,15,6.1,15,8z"/>
	</g>
</g>
</svg>
