<?xml version="1.0" encoding="utf-8"?>
<!-- Generator: Adobe Illustrator 24.1.2, SVG Export Plug-In . SVG Version: 6.00 Build 0)  -->
<svg version="1.1" id="Layer_1" xmlns="http://www.w3.org/2000/svg" xmlns:xlink="http://www.w3.org/1999/xlink" x="0px" y="0px"
	 viewBox="0 0 20 20" style="enable-background:new 0 0 20 20;" xml:space="preserve">
<path d="M10,20c-1.4,0-2.7-0.3-3.9-0.8c-1.2-0.5-2.3-1.2-3.2-2.1c-0.9-0.9-1.6-2-2.1-3.2C0.3,12.7,0,11.4,0,10
	c0-1.4,0.3-2.7,0.8-3.9C1.3,4.9,2,3.8,2.9,2.9s2-1.6,3.2-2.1C7.3,0.3,8.6,0,10,0c1.4,0,2.7,0.3,3.9,0.8c1.2,0.5,2.3,1.2,3.2,2.1
	c0.9,0.9,1.6,2,2.1,3.2C19.7,7.3,20,8.6,20,10c0,1.4-0.3,2.7-0.8,3.9c-0.5,1.2-1.2,2.3-2.1,3.2c-0.9,0.9-2,1.6-3.2,2.1
	C12.7,19.7,11.4,20,10,20z M11,17.9c2-0.3,3.6-1.1,5-2.6c1.3-1.5,2-3.3,2-5.3s-0.7-3.8-2-5.3c-1.3-1.5-3-2.4-5-2.6V17.9z"/>
</svg>
