<?xml version="1.0" encoding="utf-8"?>
<!-- Generator: Adobe Illustrator 24.1.2, SVG Export Plug-In . SVG Version: 6.00 Build 0)  -->
<svg version="1.1" id="Layer_1" xmlns="http://www.w3.org/2000/svg" xmlns:xlink="http://www.w3.org/1999/xlink" x="0px" y="0px"
	 viewBox="0 0 19 21" style="enable-background:new 0 0 19 21;" xml:space="preserve">
<path d="M7,19.5c-2-0.3-3.6-1.1-5-2.6c-1.4-1.5-2-3.2-2-5.3c0-1.1,0.2-2.1,0.6-3.1c0.4-0.9,1-1.8,1.7-2.5L8,0.5l5.6,5.6
	c0.6,0.6,1.1,1.3,1.5,2c0.4,0.8,0.7,1.6,0.8,2.4h-2c-0.1-0.6-0.3-1.1-0.6-1.6c-0.3-0.5-0.6-1-1.1-1.4L8,3.3L3.8,7.5
	c-0.6,0.5-1,1.2-1.3,1.9C2.1,10.1,2,10.8,2,11.6c0,1.4,0.5,2.7,1.4,3.8c1,1.1,2.1,1.8,3.6,2V19.5z M9.3,14.7l-0.6-1.4
	c0.4-0.2,0.9-0.4,1.4-0.6c0.5-0.2,1-0.2,1.4-0.2c0.4,0,0.8,0,1.1,0.1c0.4,0.1,0.7,0.2,1.1,0.3c0.3,0.1,0.6,0.3,0.9,0.3
	c0.3,0.1,0.6,0.2,1,0.2c0.4,0,0.8-0.1,1.1-0.2c0.4-0.1,0.7-0.3,1.1-0.5l0.6,1.4c-0.4,0.2-0.9,0.4-1.4,0.6c-0.5,0.1-1,0.2-1.4,0.2
	c-0.4,0-0.8,0-1.1-0.1c-0.4-0.1-0.7-0.2-1.1-0.3c-0.3-0.1-0.6-0.3-0.9-0.4c-0.3-0.1-0.6-0.1-1-0.1c-0.4,0-0.8,0.1-1.1,0.2
	S9.6,14.5,9.3,14.7z M9.3,17.7l-0.6-1.4c0.4-0.2,0.9-0.4,1.4-0.6c0.5-0.2,1-0.2,1.4-0.2c0.4,0,0.8,0,1.1,0.1
	c0.4,0.1,0.7,0.2,1.1,0.3c0.3,0.1,0.6,0.3,0.9,0.4c0.3,0.1,0.6,0.1,1,0.1c0.4,0,0.8-0.1,1.1-0.2c0.4-0.1,0.7-0.3,1.1-0.5l0.6,1.4
	c-0.4,0.2-0.9,0.4-1.4,0.6c-0.5,0.1-1,0.2-1.4,0.2c-0.4,0-0.8,0-1.1-0.1c-0.4-0.1-0.7-0.2-1.1-0.3c-0.3-0.1-0.6-0.3-0.9-0.4
	c-0.3-0.1-0.6-0.1-1-0.1c-0.4,0-0.8,0.1-1.1,0.2C10,17.3,9.6,17.5,9.3,17.7z M9.3,20.7l-0.6-1.4c0.4-0.2,0.9-0.4,1.4-0.6
	c0.5-0.1,1-0.2,1.4-0.2c0.4,0,0.8,0,1.1,0.1c0.4,0.1,0.7,0.2,1.1,0.3c0.3,0.1,0.6,0.3,0.9,0.4c0.3,0.1,0.6,0.1,1,0.1
	c0.4,0,0.8-0.1,1.1-0.2c0.4-0.1,0.7-0.3,1.1-0.5l0.6,1.4c-0.4,0.2-0.9,0.4-1.4,0.6c-0.5,0.1-1,0.2-1.4,0.2c-0.4,0-0.8,0-1.1-0.1
	c-0.4-0.1-0.7-0.2-1.1-0.3c-0.3-0.1-0.6-0.3-0.9-0.4c-0.3-0.1-0.6-0.1-1-0.1c-0.4,0-0.8,0.1-1.1,0.2C10,20.3,9.6,20.5,9.3,20.7z"/>
</svg>
