<?xml version="1.0" encoding="utf-8"?>
<!-- Generator: Adobe Illustrator 24.1.2, SVG Export Plug-In . SVG Version: 6.00 Build 0)  -->
<svg version="1.1" id="Layer_1" xmlns="http://www.w3.org/2000/svg" xmlns:xlink="http://www.w3.org/1999/xlink" x="0px" y="0px"
	 viewBox="0 0 20 20" style="enable-background:new 0 0 20 20;" xml:space="preserve">
<path d="M2,20c-0.5,0-1-0.2-1.4-0.6C0.2,19,0,18.6,0,18V2c0-0.6,0.2-1,0.6-1.4C1,0.2,1.5,0,2,0h8l6,6v4h-2V7H9V2H2v16h6v2H2z
	 M14.3,12.5l1.1,1.1l-3.9,3.9v1h1.1l3.9-3.9l1.1,1.1L13.2,20H10v-3.2L14.3,12.5z M17.5,15.7l-3.2-3.2l1.4-1.4
	c0.2-0.2,0.4-0.3,0.7-0.3c0.3,0,0.5,0.1,0.7,0.3l1.8,1.8c0.2,0.2,0.3,0.4,0.3,0.7c0,0.3-0.1,0.5-0.3,0.7L17.5,15.7z"/>
</svg>
