<?xml version="1.0" encoding="utf-8"?>
<!-- Generator: Adobe Illustrator 24.1.2, SVG Export Plug-In . SVG Version: 6.00 Build 0)  -->
<svg version="1.1" id="Layer_1" xmlns="http://www.w3.org/2000/svg" xmlns:xlink="http://www.w3.org/1999/xlink" x="0px" y="0px"
	 viewBox="0 0 21 20" style="enable-background:new 0 0 21 20;" xml:space="preserve">
<path d="M16,7l-0.8,0.7C15,7.9,14.7,8,14.4,8s-0.6-0.1-0.8-0.3s-0.4-0.4-0.5-0.7c-0.1-0.3-0.1-0.6,0-0.9l0.4-1.3l-0.9-0.5
	c-0.3-0.2-0.5-0.4-0.6-0.7c-0.1-0.3-0.1-0.6,0-0.8c0.1-0.3,0.3-0.5,0.5-0.7C12.8,2.1,13.1,2,13.4,2h1l0.3-1c0.1-0.3,0.3-0.6,0.5-0.8
	C15.5,0.1,15.7,0,16,0s0.5,0.1,0.8,0.3c0.2,0.2,0.4,0.4,0.5,0.8l0.3,1h1c0.3,0,0.6,0.1,0.8,0.2c0.2,0.2,0.4,0.4,0.5,0.7
	c0.1,0.3,0.1,0.6,0,0.9c-0.1,0.3-0.3,0.5-0.6,0.6l-0.9,0.5l0.4,1.3c0.1,0.3,0.1,0.6,0,0.9c-0.1,0.3-0.2,0.5-0.5,0.7
	C18.2,7.9,17.9,8,17.6,8c-0.3,0-0.6-0.1-0.8-0.3L16,7z M16,5c0.3,0,0.5-0.1,0.7-0.3C16.9,4.5,17,4.3,17,4s-0.1-0.5-0.3-0.7
	C16.5,3.1,16.3,3,16,3s-0.5,0.1-0.7,0.3C15.1,3.5,15,3.7,15,4s0.1,0.5,0.3,0.7C15.5,4.9,15.7,5,16,5z M11.8,15.9
	c0.4,1,0.3,1.9-0.4,2.8C10.8,19.6,9.9,20,8.8,20c-0.6,0-1.1-0.1-1.6-0.4c-0.5-0.3-0.9-0.7-1.1-1.1c-1.4,0.2-2.5-0.2-3.4-1.1
	c-0.9-0.9-1.3-2.1-1.1-3.5c-0.5-0.3-0.9-0.7-1.1-1.2C0.1,12.2,0,11.7,0,11.1c0-1,0.5-1.8,1.4-2.5C2.3,8,3.2,7.8,4.1,8.2l1.6,0.7
	C6,8.3,6.4,7.9,7,7.6c0.6-0.3,1.1-0.5,1.8-0.5V5h1.5v2.3c0.6,0.2,1.1,0.5,1.5,0.9c0.4,0.4,0.7,0.9,1,1.6H15v1.5h-2.1
	c0,0.6-0.2,1.2-0.5,1.8c-0.3,0.6-0.7,1-1.2,1.3L11.8,15.9z M5.6,16.5c0-0.5,0-0.9,0.1-1.3c0.1-0.4,0.2-0.8,0.3-1.2
	c-0.4,0.2-0.8,0.3-1.2,0.4c-0.4,0.1-0.9,0.1-1.3,0.1c0,0.7,0.2,1.2,0.6,1.5C4.4,16.3,4.9,16.5,5.6,16.5z M3.8,12.4
	c0.5,0,1-0.1,1.4-0.2c0.4-0.1,0.9-0.4,1.6-0.8l-3-1.3c-0.5-0.2-0.9-0.2-1.2,0c-0.3,0.2-0.5,0.5-0.5,1c0,0.4,0.1,0.8,0.4,1
	C2.7,12.3,3.2,12.4,3.8,12.4z M8.8,18c0.4,0,0.8-0.1,1-0.4c0.3-0.3,0.3-0.6,0.2-0.9l-1.3-3.4c-0.3,0.5-0.6,1.1-0.7,1.6
	c-0.2,0.5-0.3,1-0.3,1.4c0,0.6,0.1,1,0.3,1.3C8.1,17.9,8.4,18,8.8,18z M10.4,12.5c0.2-0.2,0.3-0.4,0.4-0.7c0.1-0.3,0.1-0.6,0.1-0.9
	c0-0.5-0.2-1-0.5-1.4C10.1,9.2,9.6,9,9.1,9C8.8,9,8.5,9.1,8.3,9.2C8,9.3,7.8,9.4,7.6,9.6l2,0.9L10.4,12.5z"/>
</svg>
