<?xml version="1.0" encoding="utf-8"?>
<!-- Generator: Adobe Illustrator 24.1.2, SVG Export Plug-In . SVG Version: 6.00 Build 0)  -->
<svg version="1.1" id="Layer_1" xmlns="http://www.w3.org/2000/svg" xmlns:xlink="http://www.w3.org/1999/xlink" x="0px" y="0px"
	 viewBox="0 0 24 22" style="enable-background:new 0 0 24 22;" xml:space="preserve">
<path d="M12,22l-1.7-1.5c-2-1.8-3.6-3.3-4.9-4.6c-1.3-1.3-2.3-2.4-3.1-3.5c-0.8-1-1.3-2-1.6-2.8C0.5,8.8,0.3,7.9,0.3,7
	c0-1.8,0.6-3.4,1.8-4.6c1.2-1.2,2.8-1.8,4.6-1.8c1,0,2,0.2,2.9,0.6c0.9,0.4,1.7,1,2.4,1.8c0.7-0.8,1.4-1.4,2.4-1.8
	c0.9-0.4,1.9-0.6,2.9-0.6c1.8,0,3.4,0.6,4.6,1.8c1.2,1.2,1.8,2.8,1.8,4.6c0,0.9-0.2,1.8-0.5,2.6c-0.3,0.9-0.8,1.8-1.6,2.8
	c-0.8,1-1.8,2.2-3.1,3.5c-1.3,1.3-2.9,2.8-4.9,4.6L12,22z M12,18.9c1.9-1.7,3.4-3.1,4.6-4.3c1.2-1.2,2.2-2.2,2.9-3.1
	c0.7-0.9,1.2-1.7,1.5-2.4c0.3-0.7,0.4-1.4,0.4-2.1c0-1.2-0.4-2.1-1.2-2.9c-0.8-0.8-1.8-1.2-2.9-1.2c-0.9,0-1.8,0.3-2.5,0.8
	c-0.8,0.5-1.3,1.2-1.6,2h-2.2c-0.3-0.8-0.8-1.5-1.6-2C8.5,3.2,7.7,2.9,6.8,2.9c-1.2,0-2.1,0.4-2.9,1.2C3.1,4.9,2.7,5.8,2.7,7
	c0,0.7,0.1,1.4,0.4,2.1c0.3,0.7,0.8,1.5,1.5,2.4c0.7,0.9,1.7,1.9,2.9,3.1C8.6,15.7,10.1,17.2,12,18.9z"/>
</svg>
