<?xml version="1.0" encoding="utf-8"?>
<!-- Generator: Adobe Illustrator 24.1.2, SVG Export Plug-In . SVG Version: 6.00 Build 0)  -->
<svg version="1.1" id="Layer_1" xmlns="http://www.w3.org/2000/svg" xmlns:xlink="http://www.w3.org/1999/xlink" x="0px" y="0px"
	 viewBox="0 0 20 20" style="enable-background:new 0 0 20 20;" xml:space="preserve">
<path d="M10,0C7.3,0,6.9,0,5.9,0.1c-1.1,0-1.8,0.2-2.4,0.5C2.8,0.8,2.2,1.2,1.7,1.7C1.2,2.2,0.8,2.8,0.5,3.5
	C0.3,4.1,0.1,4.8,0.1,5.9C0,6.9,0,7.3,0,10c0,2.7,0,3.1,0.1,4.1c0.1,1.1,0.2,1.8,0.5,2.4c0.3,0.7,0.6,1.2,1.2,1.8
	c0.6,0.6,1.1,0.9,1.8,1.2c0.6,0.2,1.4,0.4,2.4,0.5C6.9,20,7.3,20,10,20c2.7,0,3.1,0,4.1-0.1c1.1-0.1,1.8-0.2,2.4-0.5
	c0.7-0.3,1.3-0.6,1.8-1.2c0.6-0.6,0.9-1.1,1.2-1.8c0.2-0.6,0.4-1.4,0.5-2.4c0-1.1,0.1-1.4,0.1-4.1c0-2.7,0-3.1-0.1-4.1
	c-0.1-1.1-0.2-1.8-0.5-2.4c-0.3-0.7-0.6-1.3-1.2-1.8c-0.5-0.5-1.1-0.9-1.8-1.2c-0.6-0.2-1.4-0.4-2.4-0.5C13.1,0,12.7,0,10,0L10,0
	L10,0z M9.1,1.8H10c2.7,0,3,0,4,0.1c1,0,1.5,0.2,1.9,0.3C16.4,2.4,16.7,2.6,17,3c0.4,0.3,0.6,0.7,0.7,1.1C17.9,4.5,18.1,5,18.1,6
	c0,1.1,0.1,1.4,0.1,4c0,2.7,0,3-0.1,4c0,1-0.2,1.5-0.3,1.9c-0.2,0.4-0.4,0.8-0.7,1.1c-0.4,0.4-0.7,0.6-1.2,0.7
	c-0.4,0.1-0.9,0.3-1.9,0.3c-1.1,0-1.4,0.1-4,0.1c-2.7,0-3,0-4-0.1c-1,0-1.5-0.2-1.9-0.3C3.7,17.6,3.3,17.4,3,17
	c-0.3-0.3-0.6-0.7-0.8-1.2C2.1,15.5,1.9,15,1.9,14c0-1.1-0.1-1.4-0.1-4c0-2.7,0-3,0.1-4c0-1,0.2-1.5,0.3-1.9C2.4,3.6,2.6,3.3,3,2.9
	s0.7-0.6,1.2-0.7C4.5,2.1,5,1.9,6,1.9C6.9,1.8,7.2,1.8,9.1,1.8L9.1,1.8z M15.3,3.5c-0.2,0-0.3,0-0.5,0.1c-0.1,0.1-0.3,0.1-0.4,0.3
	c-0.1,0.1-0.2,0.2-0.3,0.4s-0.1,0.3-0.1,0.5s0,0.3,0.1,0.5c0.1,0.1,0.1,0.3,0.3,0.4c0.1,0.1,0.2,0.2,0.4,0.3
	c0.1,0.1,0.3,0.1,0.5,0.1c0.3,0,0.6-0.1,0.8-0.4c0.2-0.2,0.4-0.5,0.4-0.8c0-0.3-0.1-0.6-0.4-0.8C16,3.6,15.7,3.5,15.3,3.5z M10,4.9
	C9.3,4.9,8.6,5,8,5.2C7.4,5.5,6.8,5.9,6.3,6.3C5.8,6.8,5.4,7.4,5.2,8c-0.3,0.6-0.4,1.3-0.4,2c0,0.7,0.1,1.4,0.4,2
	c0.3,0.6,0.6,1.2,1.1,1.7c0.5,0.5,1.1,0.9,1.7,1.1c0.6,0.3,1.3,0.4,2,0.4c1.3,0,2.6-0.6,3.6-1.5c0.9-1,1.5-2.3,1.5-3.6
	c0-1.3-0.5-2.6-1.5-3.6C12.6,5.4,11.3,4.9,10,4.9z M10,6.7c0.9,0,1.7,0.4,2.4,1c0.6,0.6,1,1.5,1,2.4c0,0.9-0.4,1.7-1,2.4
	c-0.6,0.6-1.5,1-2.4,1c-0.9,0-1.7-0.4-2.4-1s-1-1.5-1-2.4c0-0.9,0.4-1.7,1-2.4S9.1,6.7,10,6.7z"/>
</svg>
