<?xml version="1.0" encoding="utf-8"?>
<!-- Generator: Adobe Illustrator 24.1.2, SVG Export Plug-In . SVG Version: 6.00 Build 0)  -->
<svg version="1.1" id="Layer_1" xmlns="http://www.w3.org/2000/svg" xmlns:xlink="http://www.w3.org/1999/xlink" x="0px" y="0px"
	 viewBox="0 0 16 16" style="enable-background:new 0 0 16 16;" xml:space="preserve">
<g>
	<path d="M15.5,15.2c-1.3,0-2.6,0-3.9,0c0-0.1,0-0.1,0-0.2c0-1.8,0-3.6,0-5.3c0-0.6-0.3-1-0.8-1.2c-0.7-0.2-1.3,0.3-1.4,1
		c0,0.1,0,0.2,0,0.3c0,1.8,0,3.5,0,5.3c0,0.1,0,0.1,0,0.2c-1.3,0-2.6,0-3.9,0c0-3.4,0-6.8,0-10.2c1.2,0,2.5,0,3.7,0
		c0,0.2,0,0.4,0,0.6c0.1,0,0.1-0.1,0.1-0.1c2-1.5,4.9-0.8,5.9,1.4c0.2,0.4,0.3,0.7,0.3,1.1c0,0,0,0.1,0,0.1
		C15.5,10.5,15.5,12.9,15.5,15.2z M6.3,5.9c0,2.8,0,5.6,0,8.5c0.7,0,1.4,0,2.1,0c0-0.1,0-0.1,0-0.2c0-1.5,0-3,0-4.5
		c0-1.3,1.2-2.3,2.5-2c0.9,0.2,1.6,1,1.6,2c0,1.5,0,3,0,4.5c0,0.1,0,0.1,0,0.2c0.7,0,1.4,0,2.1,0c0,0,0-0.1,0-0.1c0-1.9,0-3.9,0-5.8
		c0-0.2,0-0.3,0-0.5c-0.3-1.7-2-2.7-3.7-2.3C10.1,5.8,9.5,6.3,9,7C9,7,9,7.1,8.9,7.1c-0.2,0-0.4,0-0.7,0c0-0.4,0-0.8,0-1.3
		C7.6,5.9,6.9,5.9,6.3,5.9z"/>
	<path d="M0.4,2.2c0-0.1,0.1-0.2,0.1-0.4c0.3-1,1.3-1.7,2.3-1.6c1.1,0.1,1.9,1,2,2.1c0,1.1-0.7,2-1.8,2.2C1.8,4.8,0.6,4,0.5,2.8
		c0,0,0-0.1,0-0.1C0.4,2.6,0.4,2.4,0.4,2.2z M3.9,2.5c0-0.7-0.6-1.3-1.3-1.3c-0.7,0-1.3,0.6-1.3,1.3c0,0.7,0.6,1.3,1.3,1.3
		C3.3,3.8,3.9,3.2,3.9,2.5z"/>
	<path d="M4.5,15.2c-1.3,0-2.6,0-3.9,0c0-3.4,0-6.8,0-10.2C2,5,3.2,5,4.5,5C4.5,8.4,4.5,11.8,4.5,15.2z M1.6,5.9c0,2.8,0,5.6,0,8.5
		c0.7,0,1.4,0,2.1,0c0-2.8,0-5.6,0-8.5C3,5.9,2.3,5.9,1.6,5.9z"/>
</g>
</svg>
