<?xml version="1.0" encoding="utf-8"?>
<!-- Generator: Adobe Illustrator 24.1.2, SVG Export Plug-In . SVG Version: 6.00 Build 0)  -->
<svg version="1.1" id="Layer_1" xmlns="http://www.w3.org/2000/svg" xmlns:xlink="http://www.w3.org/1999/xlink" x="0px" y="0px"
	 viewBox="0 0 24 18" style="enable-background:new 0 0 24 18;" xml:space="preserve">
<path d="M5.5,17.5c-0.9,0-1.7-0.3-2.3-1c-0.6-0.6-1-1.4-1-2.3H0v-12c0-0.6,0.2-1.1,0.6-1.5C1.1,0.2,1.6,0,2.2,0h15.3v4.4h3.3L24,8.7
	v5.5h-2.2c0,0.9-0.3,1.7-1,2.3c-0.6,0.6-1.4,1-2.3,1c-0.9,0-1.7-0.3-2.3-1c-0.6-0.6-1-1.4-1-2.3H8.7c0,0.9-0.3,1.7-1,2.3
	C7.1,17.1,6.4,17.5,5.5,17.5z M5.5,15.3c0.3,0,0.6-0.1,0.8-0.3c0.2-0.2,0.3-0.5,0.3-0.8s-0.1-0.6-0.3-0.8c-0.2-0.2-0.5-0.3-0.8-0.3
	c-0.3,0-0.6,0.1-0.8,0.3c-0.2,0.2-0.3,0.5-0.3,0.8s0.1,0.6,0.3,0.8C4.9,15.2,5.1,15.3,5.5,15.3z M2.2,12h0.9
	c0.3-0.3,0.7-0.6,1.1-0.8s0.8-0.3,1.3-0.3c0.5,0,0.9,0.1,1.3,0.3c0.4,0.2,0.8,0.5,1.1,0.8h7.4V2.2H2.2V12z M18.5,15.3
	c0.3,0,0.6-0.1,0.8-0.3c0.2-0.2,0.3-0.5,0.3-0.8s-0.1-0.6-0.3-0.8c-0.2-0.2-0.5-0.3-0.8-0.3c-0.3,0-0.6,0.1-0.8,0.3
	c-0.2,0.2-0.3,0.5-0.3,0.8s0.1,0.6,0.3,0.8C18,15.2,18.2,15.3,18.5,15.3z M17.5,9.8h4.6l-2.5-3.3h-2.2V9.8z"/>
</svg>
