<?xml version="1.0" encoding="utf-8"?>
<!-- Generator: Adobe Illustrator 24.1.2, SVG Export Plug-In . SVG Version: 6.00 Build 0)  -->
<svg version="1.1" id="Layer_1" xmlns="http://www.w3.org/2000/svg" xmlns:xlink="http://www.w3.org/1999/xlink" x="0px" y="0px"
	 viewBox="0 0 23 22" style="enable-background:new 0 0 23 22;" xml:space="preserve">
<path d="M8.1,21.8l-1.9-3.2l-3.6-0.8L3,14.1l-2.5-2.8L3,8.5L2.6,4.8L6.2,4l1.9-3.2l3.4,1.5l3.4-1.5L16.8,4l3.6,0.8L20,8.5l2.5,2.8
	L20,14.1l0.4,3.7l-3.6,0.8l-1.9,3.2l-3.4-1.5L8.1,21.8z M8.9,19.2l2.6-1.1l2.6,1.1l1.4-2.4l2.8-0.6L18,13.4l1.9-2.1L18,9.1l0.3-2.8
	l-2.8-0.6l-1.4-2.4l-2.6,1.1L8.9,3.3L7.5,5.7L4.8,6.3L5,9.1l-1.8,2.1L5,13.4l-0.3,2.9l2.8,0.6L8.9,19.2z M10.4,14.8l5.7-5.7
	l-1.4-1.4L10.4,12L8.3,9.9l-1.4,1.4L10.4,14.8z"/>
</svg>
