<?xml version="1.0" encoding="utf-8"?>
<!-- Generator: Adobe Illustrator 24.1.2, SVG Export Plug-In . SVG Version: 6.00 Build 0)  -->
<svg version="1.1" id="Layer_1" xmlns="http://www.w3.org/2000/svg" xmlns:xlink="http://www.w3.org/1999/xlink" x="0px" y="0px"
	 viewBox="0 0 21 22" style="enable-background:new 0 0 21 22;" xml:space="preserve">
<path d="M10.5,11c-1.4,0-2.6-0.5-3.6-1.5c-1-1-1.5-2.2-1.5-3.6c0-1.4,0.5-2.6,1.5-3.6c1-1,2.2-1.5,3.6-1.5c1.4,0,2.6,0.5,3.6,1.5
	c1,1,1.5,2.2,1.5,3.6c0,1.4-0.5,2.6-1.5,3.6C13.1,10.5,11.9,11,10.5,11z M0.2,21.3v-3.6c0-0.7,0.2-1.4,0.6-2
	c0.4-0.6,0.9-1.1,1.5-1.4c1.3-0.7,2.7-1.2,4.1-1.5c1.4-0.3,2.8-0.5,4.2-0.5c1.4,0,2.8,0.2,4.2,0.5c1.4,0.3,2.7,0.8,4.1,1.5
	c0.6,0.3,1.1,0.8,1.5,1.4c0.4,0.6,0.6,1.3,0.6,2v3.6H0.2z M2.7,18.8h15.5v-1c0-0.2-0.1-0.5-0.2-0.6c-0.1-0.2-0.3-0.3-0.5-0.5
	c-1.2-0.6-2.3-1-3.5-1.3c-1.2-0.3-2.4-0.4-3.6-0.4c-1.2,0-2.4,0.1-3.6,0.4c-1.2,0.3-2.4,0.7-3.5,1.3c-0.2,0.1-0.3,0.3-0.5,0.5
	c-0.1,0.2-0.2,0.4-0.2,0.6V18.8z M10.5,8.4c0.7,0,1.3-0.3,1.8-0.8c0.5-0.5,0.8-1.1,0.8-1.8c0-0.7-0.3-1.3-0.8-1.8
	c-0.5-0.5-1.1-0.8-1.8-0.8C9.8,3.3,9.2,3.5,8.7,4C8.2,4.5,7.9,5.1,7.9,5.8c0,0.7,0.3,1.3,0.8,1.8C9.2,8.2,9.8,8.4,10.5,8.4z"/>
</svg>
