<?xml version="1.0" encoding="utf-8"?>
<!-- Generator: Adobe Illustrator 24.1.2, SVG Export Plug-In . SVG Version: 6.00 Build 0)  -->
<svg version="1.1" id="Layer_1" xmlns="http://www.w3.org/2000/svg" xmlns:xlink="http://www.w3.org/1999/xlink" x="0px" y="0px"
	 viewBox="0 0 16 16" style="enable-background:new 0 0 16 16;" xml:space="preserve">
<path d="M3.7,1.3C3.6,1.3,3.5,1.2,3.4,1.1c-0.1,0-0.2-0.1-0.3-0.1c-0.1,0-0.2,0-0.3,0c-0.1,0-0.2,0.1-0.2,0.2l-1,1
	C1.1,2.8,0.9,3.5,1.2,4.1C2,6.6,3.5,8.8,5.3,10.7c1.9,1.9,4.1,3.3,6.6,4.2c0.6,0.2,1.3,0,1.8-0.4l1-1c0.1-0.1,0.1-0.1,0.2-0.2
	c0-0.1,0-0.2,0-0.3c0-0.1,0-0.2-0.1-0.3c0-0.1-0.1-0.2-0.2-0.2l-2.3-1.8c-0.1-0.1-0.2-0.1-0.3-0.1c-0.1,0-0.2,0-0.3,0L9.6,11
	C9.3,11.1,9,11,8.7,11c-0.3-0.1-0.6-0.2-0.8-0.4L5.5,8.1C5.3,7.8,5.1,7.6,5,7.3C5,7,4.9,6.7,5,6.4l0.5-2.2c0-0.1,0-0.2,0-0.3
	c0-0.1-0.1-0.2-0.1-0.3L3.7,1.3z M1.9,0.5c0.2-0.2,0.4-0.3,0.6-0.4C2.7,0,3,0,3.2,0c0.2,0,0.5,0.1,0.7,0.2c0.2,0.1,0.4,0.3,0.6,0.5
	L6.3,3c0.3,0.4,0.4,1,0.3,1.5L6.1,6.7c0,0.1,0,0.2,0,0.3c0,0.1,0.1,0.2,0.2,0.3l2.5,2.5C8.8,9.8,8.9,9.9,9,9.9c0.1,0,0.2,0,0.3,0
	l2.2-0.5c0.3-0.1,0.5-0.1,0.8,0c0.3,0.1,0.5,0.2,0.7,0.3l2.3,1.8c0.8,0.6,0.9,1.9,0.2,2.6l-1,1c-0.7,0.7-1.8,1.1-2.9,0.7
	c-2.6-0.9-5-2.4-7-4.4c-2-2-3.5-4.4-4.4-7c-0.4-1,0-2.1,0.7-2.9L1.9,0.5L1.9,0.5z"/>
</svg>
