<?xml version="1.0" encoding="utf-8"?>
<!-- Generator: Adobe Illustrator 24.1.2, SVG Export Plug-In . SVG Version: 6.00 Build 0)  -->
<svg version="1.1" id="Layer_1" xmlns="http://www.w3.org/2000/svg" xmlns:xlink="http://www.w3.org/1999/xlink" x="0px" y="0px"
	 viewBox="0 0 20 20" style="enable-background:new 0 0 20 20;" xml:space="preserve">
<path d="M2,15.5v2h16v-2H2z M2,4.5h2.2C4.1,4.4,4.1,4.2,4,4c0-0.2,0-0.3,0-0.5C4,2.7,4.3,2,4.9,1.4C5.5,0.8,6.2,0.5,7,0.5
	c0.5,0,1,0.1,1.4,0.4c0.4,0.3,0.8,0.6,1.1,1L10,2.5l0.5-0.7c0.3-0.4,0.7-0.7,1.1-1s0.9-0.4,1.4-0.4c0.8,0,1.5,0.3,2.1,0.9
	C15.7,2,16,2.7,16,3.5c0,0.2,0,0.4,0,0.5c0,0.2-0.1,0.3-0.2,0.5H18c0.5,0,1,0.2,1.4,0.6C19.8,5.5,20,6,20,6.5v11
	c0,0.5-0.2,1-0.6,1.4c-0.4,0.4-0.9,0.6-1.4,0.6H2c-0.5,0-1-0.2-1.4-0.6C0.2,18.5,0,18.1,0,17.5v-11c0-0.6,0.2-1,0.6-1.4
	C1,4.7,1.5,4.5,2,4.5z M2,12.5h16v-6h-5.1L15,9.4l-1.6,1.1L10,5.9l-3.4,4.6L5,9.4l2.1-2.8H2V12.5z M7,4.5c0.3,0,0.5-0.1,0.7-0.3
	C7.9,4,8,3.8,8,3.5S7.9,3,7.7,2.8C7.5,2.6,7.3,2.5,7,2.5S6.5,2.6,6.3,2.8C6.1,3,6,3.2,6,3.5S6.1,4,6.3,4.2C6.5,4.4,6.7,4.5,7,4.5z
	 M13,4.5c0.3,0,0.5-0.1,0.7-0.3C13.9,4,14,3.8,14,3.5S13.9,3,13.7,2.8c-0.2-0.2-0.4-0.3-0.7-0.3s-0.5,0.1-0.7,0.3
	C12.1,3,12,3.2,12,3.5s0.1,0.5,0.3,0.7C12.5,4.4,12.7,4.5,13,4.5z"/>
</svg>
