<?xml version="1.0" encoding="utf-8"?>
<!-- Generator: Adobe Illustrator 24.1.2, SVG Export Plug-In . SVG Version: 6.00 Build 0)  -->
<svg version="1.1" id="Layer_1" xmlns="http://www.w3.org/2000/svg" xmlns:xlink="http://www.w3.org/1999/xlink" x="0px" y="0px"
	 viewBox="0 0 21 20" style="enable-background:new 0 0 21 20;" xml:space="preserve">
<path d="M18.6,19.6l-6.7-6.7c-0.5,0.4-1.1,0.8-1.8,1c-0.7,0.2-1.4,0.4-2.2,0.4c-1.9,0-3.6-0.7-4.9-2c-1.3-1.3-2-3-2-4.9
	c0-1.9,0.7-3.6,2-4.9c1.3-1.3,3-2,4.9-2c1.9,0,3.6,0.7,4.9,2c1.3,1.3,2,3,2,4.9c0,0.8-0.1,1.5-0.4,2.2c-0.2,0.7-0.6,1.3-1,1.8
	l6.7,6.7L18.6,19.6z M7.8,12.1c1.3,0,2.5-0.5,3.4-1.4c0.9-0.9,1.4-2.1,1.4-3.4c0-1.3-0.5-2.5-1.4-3.4C10.3,3,9.2,2.5,7.8,2.5
	C6.5,2.5,5.4,3,4.4,3.9C3.5,4.9,3,6,3,7.3c0,1.3,0.5,2.5,1.4,3.4C5.4,11.7,6.5,12.1,7.8,12.1z"/>
</svg>
