<?xml version="1.0" encoding="utf-8"?>
<!-- Generator: Adobe Illustrator 24.1.2, SVG Export Plug-In . SVG Version: 6.00 Build 0)  -->
<svg version="1.1" id="Layer_1" xmlns="http://www.w3.org/2000/svg" xmlns:xlink="http://www.w3.org/1999/xlink" x="0px" y="0px"
	 viewBox="0 0 17 22" style="enable-background:new 0 0 17 22;" xml:space="preserve">
<path d="M2.3,21.4c-0.6,0-1.1-0.2-1.5-0.6c-0.4-0.4-0.6-0.9-0.6-1.5V6.8c0-0.6,0.2-1.1,0.6-1.5C1.2,5,1.7,4.8,2.3,4.8h2.1
	c0-1.1,0.4-2.1,1.2-2.9C6.4,1,7.4,0.6,8.5,0.6s2.1,0.4,2.9,1.2s1.2,1.8,1.2,2.9h2.1c0.6,0,1.1,0.2,1.5,0.6c0.4,0.4,0.6,0.9,0.6,1.5
	v12.5c0,0.6-0.2,1.1-0.6,1.5c-0.4,0.4-0.9,0.6-1.5,0.6H2.3z M2.3,19.3h12.5V6.8h-2.1v2.1c0,0.3-0.1,0.5-0.3,0.7
	c-0.2,0.2-0.4,0.3-0.7,0.3c-0.3,0-0.5-0.1-0.7-0.3c-0.2-0.2-0.3-0.4-0.3-0.7V6.8H6.4v2.1c0,0.3-0.1,0.5-0.3,0.7
	C5.9,9.9,5.7,10,5.4,10c-0.3,0-0.5-0.1-0.7-0.3C4.4,9.5,4.3,9.2,4.3,8.9V6.8H2.3V19.3z M6.4,4.8h4.2c0-0.6-0.2-1.1-0.6-1.5
	C9.6,2.9,9.1,2.7,8.5,2.7S7.4,2.9,7,3.3C6.6,3.7,6.4,4.2,6.4,4.8z"/>
</svg>
