<?xml version="1.0" encoding="utf-8"?>
<!-- Generator: Adobe Illustrator 24.1.2, SVG Export Plug-In . SVG Version: 6.00 Build 0)  -->
<svg version="1.1" id="Layer_1" xmlns="http://www.w3.org/2000/svg" xmlns:xlink="http://www.w3.org/1999/xlink" x="0px" y="0px"
	 viewBox="0 0 16 16" style="enable-background:new 0 0 16 16;" xml:space="preserve">
<g>
	<path d="M0.7,5.9c0-0.1,0-0.1,0-0.2C0.9,5.3,1,5.3,1.4,5.4c0.1,0,0.2,0.1,0.4,0.1c0-0.1,0-0.1-0.1-0.1C1.5,4.8,1.4,4.3,1.4,3.7
		c0.1-0.5,0.2-0.9,0.5-1.3c0.2-0.3,0.5-0.3,0.7,0c0,0.1,0.1,0.2,0.1,0.2C3.6,4,4.6,4.9,6.1,5.5c0.5,0.2,1,0.3,1.6,0.4
		c0-0.1,0-0.1,0-0.2c0-1,0.3-2,1.1-2.7C9.6,2,11,1.8,12.1,2.3c0.1,0.1,0.3,0.1,0.4,0c0.5-0.3,1-0.5,1.6-0.8c0.2-0.1,0.3-0.1,0.5,0
		c0.2,0.1,0.3,0.4,0.2,0.6c-0.2,0.4-0.4,0.8-0.6,1.2c0,0,0,0.1-0.1,0.1c0.2,0,0.4,0,0.6,0c0.3,0,0.5,0,0.6,0.3c0,0.1,0,0.1,0,0.2
		C15,4.3,14.8,4.6,14.5,5c0,0.1-0.1,0.1,0,0.2c0,0.3,0.1,0.6,0.1,0.8c0.1,1.1-0.1,2.1-0.4,3.1c-0.3,0.9-0.8,1.7-1.4,2.4
		c-0.7,0.8-1.6,1.5-2.6,1.9C9,13.9,7.8,14,6.6,14c-1.4,0-2.8-0.2-4.1-0.7c-0.5-0.2-0.9-0.4-1.3-0.7C1,12.4,1,12.2,1.1,12
		c0.1-0.2,0.2-0.3,0.4-0.3c0.2,0,0.3,0,0.5,0c0.6,0,1.2,0,1.8-0.2c0.4-0.1,0.8-0.3,1.2-0.6c0,0,0,0,0,0c-0.1,0-0.1,0-0.2,0
		c-1-0.3-1.8-0.7-2.6-1.4C2.1,9.4,2,9.2,2,9c0.1-0.2,0.2-0.3,0.4-0.3c0.1,0,0.3-0.1,0.4-0.1C2.7,8.5,2.6,8.5,2.5,8.4
		C1.6,7.9,1,7.1,0.8,6.1C0.8,6,0.8,6,0.7,5.9z M3.2,12.6C3.2,12.6,3.2,12.6,3.2,12.6C5,13.1,6.8,13.3,8.6,13c1-0.2,1.9-0.6,2.7-1.2
		c0.7-0.6,1.3-1.4,1.8-2.3c0.3-0.7,0.5-1.4,0.6-2.1c0.1-0.7,0-1.4-0.1-2.2c0-0.2,0-0.4,0.1-0.5c0.1-0.1,0.2-0.2,0.2-0.4
		c-0.1,0-0.2,0-0.4,0c-0.1,0-0.2,0-0.3,0c-0.3,0-0.5-0.2-0.4-0.5c0-0.1,0-0.1,0.1-0.2c0.1-0.3,0.3-0.5,0.4-0.9
		c-0.3,0.1-0.5,0.2-0.8,0.4c-0.2,0.1-0.4,0.1-0.7,0c-0.5-0.3-1-0.3-1.5-0.2c-1,0.2-1.7,1.1-1.9,2.2c-0.1,0.3,0,0.7,0,1
		c0.1,0.3-0.1,0.6-0.4,0.6c-0.7,0-1.3-0.1-1.9-0.3C4.6,5.9,3.4,5,2.4,3.7c0,0-0.1-0.1-0.1-0.1C2.2,4,2.3,4.4,2.4,4.7
		c0.1,0.3,0.3,0.7,0.5,0.9C3,5.8,3.1,5.9,3,6.1C2.9,6.3,2.8,6.4,2.6,6.4c-0.2,0-0.4,0-0.6,0c-0.1,0-0.1,0-0.2,0
		c0.2,0.4,0.4,0.7,0.7,1c0.4,0.3,0.9,0.6,1.4,0.7c0.2,0.1,0.4,0.2,0.4,0.4c0,0.2-0.1,0.4-0.3,0.5C3.8,9.1,3.6,9.2,3.3,9.3
		c0,0,0,0,0.1,0c0.4,0.2,0.8,0.4,1.2,0.5C5,10.1,5.5,10.1,6,10.2c0.3,0.1,0.5,0.4,0.2,0.7c-0.6,0.7-1.3,1.2-2.2,1.4
		C3.7,12.5,3.4,12.5,3.2,12.6z"/>
</g>
</svg>
