<?xml version="1.0" encoding="utf-8"?>
<!-- Generator: Adobe Illustrator 24.1.2, SVG Export Plug-In . SVG Version: 6.00 Build 0)  -->
<svg version="1.1" id="Layer_1" xmlns="http://www.w3.org/2000/svg" xmlns:xlink="http://www.w3.org/1999/xlink" x="0px" y="0px"
	 viewBox="0 0 16 16" style="enable-background:new 0 0 16 16;" xml:space="preserve">
<g>
	<path d="M16,9.1c0,0.3,0,0.6-0.1,1c0,0.5-0.1,1-0.2,1.5c-0.3,1.1-0.9,1.8-2,1.9c-0.4,0.1-0.9,0.1-1.3,0.1c-1.4,0-2.9,0.1-4.3,0.1
		c-1.8,0-3.6-0.1-5.3-0.2c-0.5,0-1.1-0.1-1.5-0.4c-0.6-0.4-0.9-0.9-1-1.5C0.1,10.7,0.1,9.9,0,9.1C0,7.6,0,6,0.1,4.4
		c0.1-0.6,0.2-1.2,0.6-1.8c0.4-0.5,0.9-0.8,1.6-0.9C3.1,1.7,4,1.7,4.8,1.6c1.7,0,3.4-0.1,5,0c1.2,0,2.4,0.1,3.6,0.2
		c0.8,0,1.4,0.4,1.9,1c0.3,0.4,0.4,0.8,0.5,1.3c0.1,0.6,0.1,1.2,0.2,1.8c0,0.1,0,0.3,0,0.4C16,7.2,16,8.1,16,9.1z M8.4,2.5
		c-1.5,0-2.6,0.1-3.7,0.1c-0.7,0-1.4,0.1-2,0.1c-0.7,0.1-1.1,0.4-1.3,1C1.1,4.2,1,4.7,1,5.2c-0.1,1.7-0.1,3.3,0,5
		c0,0.4,0.1,0.8,0.2,1.3c0.1,0.3,0.2,0.5,0.4,0.7c0.3,0.3,0.6,0.4,1,0.4c0.5,0.1,1.1,0.1,1.6,0.1c2.5,0.1,5,0.1,7.6,0
		c0.6,0,1.2-0.1,1.8-0.1c0.6-0.1,0.9-0.4,1.1-0.9c0.2-0.5,0.2-1,0.3-1.6c0.1-1.4,0.1-2.8,0-4.3c0-0.6,0-1.3-0.2-1.9
		c-0.1-0.3-0.2-0.6-0.5-0.9c-0.3-0.3-0.7-0.3-1.1-0.4C11.4,2.6,9.7,2.5,8.4,2.5z"/>
	<path d="M6,7.4c0-0.6,0-1.2,0-1.8C6,5,6.5,4.7,7,5c1.1,0.6,2.3,1.2,3.4,1.9c0.2,0.1,0.4,0.3,0.4,0.6c0,0.3-0.2,0.5-0.4,0.6
		C9.3,8.7,8.1,9.3,7,9.9c-0.5,0.3-1,0-1-0.6C6,8.7,6,8.1,6,7.4z M9.5,7.5C8.7,7,7.8,6.5,6.9,6c0,1,0,1.9,0,2.9
		C7.8,8.4,8.7,8,9.5,7.5z"/>
</g>
</svg>
