<?xml version="1.0" encoding="utf-8"?>
<!-- Generator: Adobe Illustrator 24.1.2, SVG Export Plug-In . SVG Version: 6.00 Build 0)  -->
<svg version="1.1" id="Layer_1" xmlns="http://www.w3.org/2000/svg" xmlns:xlink="http://www.w3.org/1999/xlink" x="0px" y="0px"
	 viewBox="0 0 16 16" style="enable-background:new 0 0 16 16;" xml:space="preserve">
<path d="M5.6,2.9c0,0-0.1,0-0.4,0C5,2.9,4.7,2.9,4.4,2.8C4.1,2.7,3.8,2.6,3.6,2.4C3.3,2.2,3.2,1.9,3.2,1.6s0.1-0.6,0.3-0.8
	C3.8,0.6,4,0.5,4.3,0.5c0.3-0.1,0.5-0.1,0.8-0.1c0.2,0,0.3,0,0.3,0l6.1,0.1c0,0,0.1,0,0.4,0c0.3,0,0.6,0.1,0.9,0.2
	c0.3,0.1,0.6,0.3,0.7,0.6c0.2,0.3,0.1,0.7-0.1,1.2C13.3,2.8,13,3.3,12.7,4c-0.3,0.6-0.7,1.3-1.1,2.1c-0.4,0.8-0.8,1.6-1.3,2.3
	c-0.4,0.8-0.8,1.5-1.2,2.2c-0.4,0.7-0.7,1.2-0.9,1.6c-0.2,0.4-0.3,0.6-0.3,0.6l3.8,0c0,0,0.1,0,0.3,0c0.2,0,0.4,0,0.7,0.1
	c0.3,0.1,0.5,0.2,0.7,0.4c0.2,0.2,0.3,0.4,0.3,0.7c0,0.3-0.1,0.6-0.3,0.8c-0.2,0.2-0.4,0.3-0.7,0.4c-0.3,0.1-0.5,0.1-0.7,0.1
	c-0.2,0-0.3,0-0.3,0H6.1c0,0-0.1,0-0.4,0c-0.2,0-0.5-0.1-0.8-0.1c-0.3-0.1-0.6-0.1-0.9-0.3c-0.3-0.2-0.5-0.4-0.6-0.6
	c-0.1-0.4-0.2-0.7-0.1-1.1c0.1-0.3,0.2-0.6,0.3-0.8C3.7,12.1,3.8,12,3.8,12l4.9-9L5.6,2.9z"/>
</svg>
