<?xml version="1.0" encoding="utf-8"?>
<!-- Generator: Adobe Illustrator 24.1.2, SVG Export Plug-In . SVG Version: 6.00 Build 0)  -->
<svg version="1.1" id="Layer_1" xmlns="http://www.w3.org/2000/svg" xmlns:xlink="http://www.w3.org/1999/xlink" x="0px" y="0px"
	 viewBox="0 0 48 48" style="enable-background:new 0 0 48 48;" xml:space="preserve">
<style type="text/css">
	.st0{fill:#FFFFFF;}
</style>
<path class="st0" d="M24,46c-3.7,0-7.3-1.1-10.8-3.3C9.7,40.5,7,38,5,35.2V42H2V30h12v3H7.2c1.7,2.6,4.1,4.9,7.3,6.9
	C17.6,42,20.8,43,24,43c2.6,0,5.1-0.5,7.4-1.5s4.3-2.4,6-4.1s3.1-3.7,4.1-6S43,26.6,43,24h3c0,3-0.6,5.9-1.7,8.5
	c-1.2,2.7-2.7,5-4.7,7s-4.3,3.6-7,4.7C29.9,45.4,27,46,24,46z M22.5,38.3v-2.7c-1.5-0.4-2.8-1-3.8-1.9c-1-0.9-1.9-2.1-2.6-3.6
	l2.5-0.9c0.4,1.3,1.1,2.3,2.1,3c1,0.7,2.2,1.1,3.5,1.1c1.3,0,2.4-0.3,3.3-1c0.9-0.6,1.3-1.5,1.3-2.6c0-1.1-0.4-2-1.3-2.8
	s-2.4-1.6-4.6-2.5c-2-0.8-3.5-1.7-4.5-2.7c-1-1-1.5-2.3-1.5-3.9c0-1.5,0.5-2.7,1.5-3.8s2.3-1.7,4-1.9V9.7h2.8v2.6
	c1.3,0.1,2.4,0.5,3.3,1.2c0.9,0.7,1.7,1.6,2.3,2.8l-2.4,1.1c-0.5-0.9-1.1-1.6-1.8-2.1s-1.6-0.7-2.6-0.7c-1.3,0-2.3,0.3-3.1,0.9
	c-0.8,0.6-1.1,1.4-1.1,2.4c0,1.1,0.4,1.9,1.3,2.6c0.9,0.6,2.3,1.4,4.2,2.1c2.3,1,3.9,2,4.9,3c1,1.1,1.5,2.5,1.5,4.1
	c0,0.8-0.1,1.6-0.5,2.3c-0.3,0.7-0.7,1.3-1.3,1.8s-1.2,0.9-2,1.2s-1.7,0.5-2.7,0.6v2.6H22.5z M2,24c0-3,0.6-5.9,1.7-8.6s2.7-5,4.7-7
	s4.3-3.6,7-4.7S21,2,24,2c3.7,0,7.3,1.1,10.8,3.3S41,10,43,12.9V6h3v12H34v-3h6.8c-1.7-2.6-4.1-4.9-7.3-6.9S27.3,5,24,5
	c-2.6,0-5.1,0.5-7.4,1.5s-4.3,2.4-6.1,4.1s-3.1,3.7-4.1,6.1S5,21.4,5,24H2z"/>
</svg>
