<svg width="142" height="118" viewBox="0 0 142 118" fill="none" xmlns="http://www.w3.org/2000/svg">
<path d="M65.4 2.8C61 4.5 55.5 8.7 52.7 13.6C49.2 19.6 55.2 26.7 55.1 33.6C55 38.9 51.3 43.6 46.8 46.3C42.3 49 37 50.2 31.9 51.5C25.2 53.1 18.5 55.1 12.7 58.7C6.8 62.3 1.9 67.9 0.400002 74.6C-1.2 82.1 1.7 89.9 5.7 96.5C8.1 100.5 11.2 104.5 15.6 106.2C24.2 109.4 33.3 102.5 42.5 101.8C53.8 101 63.2 109.6 73.7 113.9C88.9 120.2 106.9 117 121 108.4C128.9 103.6 136.1 96.9 139.5 88.2C142.9 79.6 141.9 68.8 135.4 62.1C129 55.5 119 54.2 110.1 51.7C101.2 49.2 91.5 43.7 90.5 34.6C89.9 29.1 92.6 23.9 94.3 18.6C96 13.3 96.3 6.7 92 3.1C90 1.4 87.5 0.799996 85 0.399996C77.3 -0.800004 69.6 1.1 65.4 2.8Z" fill="url(#paint0_linear_54_668)"/>
<defs>
<linearGradient id="paint0_linear_54_668" x1="1.86993e-06" y1="58.5279" x2="141.34" y2="58.5279" gradientUnits="userSpaceOnUse">
<stop offset="0.00104345" stop-color="#F3FBFE"/>
<stop offset="1" stop-color="#F7F9FD"/>
</linearGradient>
</defs>
</svg>
