<svg width="139" height="110" viewBox="0 0 139 110" fill="none" xmlns="http://www.w3.org/2000/svg">
<path d="M124.334 20.2632C104.356 3.4711 76.9515 -5.53658 51.4555 0.0281966C25.9595 5.59297 3.66936 27.0909 0.87686 53.0211C-1.91564 78.9513 17.6811 106.378 43.5986 108.935C49.1451 109.512 54.9356 108.944 59.9969 106.641C66.4681 103.701 71.2777 98.102 76.7762 93.7108C89.5181 83.4714 105.826 79.1285 120.939 73.0194C126.73 70.7275 132.735 67.7566 135.902 62.3477C138.124 58.4682 138.563 53.795 138.231 49.445C137.244 36.5266 129.716 24.7635 124.334 20.2632Z" fill="url(#paint0_linear_22_83)"/>
<defs>
<linearGradient id="paint0_linear_22_83" x1="20.6338" y1="15.2375" x2="110.411" y2="92.3597" gradientUnits="userSpaceOnUse">
<stop stop-color="#00B7E8" stop-opacity="0.03"/>
<stop offset="1" stop-color="#0047BB" stop-opacity="0.03"/>
</linearGradient>
</defs>
</svg>
