<svg width="136" height="89" viewBox="0 0 136 89" fill="none" xmlns="http://www.w3.org/2000/svg">
<path d="M51.8 8.9C37.2 10.1 23.6 18.7 13.2 29C2.8 39.4 -2.7 55.9 3.7 69.1C6.7 75.2 11.8 80 17.7 83.4C27.8 89.3 40.8 91.1 51.1 85.6C62 79.7 67.9 66.9 78.8 61C84.8 57.7 91.8 56.9 98.5 55.6C108.1 53.8 117.8 50.8 125.2 44.4C132.6 38.1 137.3 27.8 134.7 18.4C131.9 8.3 121.5 1.8 111.2 0.399998C100.8 -1 90.4 1.7 80.3 4.4C70.2 7.2 59.9 8.3 51.8 8.9Z" fill="url(#paint0_linear_22_81)"/>
<defs>
<linearGradient id="paint0_linear_22_81" x1="0.999999" y1="44.4341" x2="135.438" y2="44.4341" gradientUnits="userSpaceOnUse">
<stop stop-color="#00B7E8" stop-opacity="0.05"/>
<stop offset="1" stop-color="#0047BB" stop-opacity="0.03"/>
</linearGradient>
</defs>
</svg>
