<?xml version="1.0" encoding="utf-8"?>
<!-- Generator: Adobe Illustrator 24.1.2, SVG Export Plug-In . SVG Version: 6.00 Build 0)  -->
<svg version="1.1" id="Layer_1" xmlns="http://www.w3.org/2000/svg" xmlns:xlink="http://www.w3.org/1999/xlink" x="0px" y="0px"
	 viewBox="0 0 48 48" style="enable-background:new 0 0 48 48;" xml:space="preserve">
<style type="text/css">
	.st0{fill:#FFFFFF;}
</style>
<path class="st0" d="M11.2,40c-1.6,0-3-0.6-4.2-1.7c-1.2-1.1-1.7-2.5-1.7-4.2H2V11c0-0.8,0.3-1.5,0.9-2.1C3.5,8.3,4.2,8,5,8h29v8.4
	h5.3l6.8,9V34h-3.5c0,1.6-0.6,3-1.7,4.2c-1.1,1.2-2.5,1.7-4.2,1.7c-1.6,0-3-0.6-4.2-1.7c-1.1-1.1-1.7-2.5-1.7-4.2H17.1
	c0,1.6-0.6,3-1.7,4.2C14.2,39.4,12.8,40,11.2,40z M11.2,37c0.8,0,1.5-0.3,2.1-0.9c0.6-0.6,0.9-1.2,0.9-2c0-0.8-0.3-1.5-0.9-2
	s-1.3-0.9-2.1-0.9c-0.8,0-1.5,0.3-2.1,0.9s-0.8,1.3-0.8,2c0,0.8,0.3,1.5,0.8,2C9.7,36.7,10.4,37,11.2,37z M5,31h1.1
	c0.6-0.9,1.3-1.6,2.2-2.1c0.9-0.5,1.8-0.8,2.9-0.8s2,0.3,2.9,0.8c0.9,0.6,1.6,1.3,2.2,2.1H31V11H5l0,0l0,0V31z M36.5,37
	c0.8,0,1.5-0.3,2-0.9c0.6-0.6,0.9-1.2,0.9-2c0-0.8-0.3-1.5-0.9-2c-0.6-0.6-1.2-0.9-2-0.9c-0.8,0-1.5,0.3-2,0.9s-0.8,1.3-0.8,2
	c0,0.8,0.3,1.5,0.8,2C35.1,36.7,35.8,37,36.5,37z M34,26.8h9.3l-5.5-7.4H34V26.8z M18,21.5C18,21.5,18,21.5,18,21.5
	C18,21.5,18,21.5,18,21.5C18,21.5,18,21.5,18,21.5C18,21.5,18,21.5,18,21.5C18,21.5,18,21.5,18,21.5C18,21.5,18,21.5,18,21.5z"/>
</svg>
