<?xml version="1.0" encoding="utf-8"?>
<!-- Generator: Adobe Illustrator 24.1.2, SVG Export Plug-In . SVG Version: 6.00 Build 0)  -->
<svg version="1.1" xmlns="http://www.w3.org/2000/svg" xmlns:xlink="http://www.w3.org/1999/xlink" x="0px" y="0px"
	 viewBox="0 0 3710 3710" style="enable-background:new 0 0 3710 3710;" xml:space="preserve">
<style type="text/css">
	.st0{fill:#FFFFFF;}
	.st1{fill:#F4F7FA;}
	.st2{clip-path:url(#SVGID_3_);}
	.st3{clip-path:url(#SVGID_6_);}
	.st4{fill:url(#SVGID_7_);}
	.st5{clip-path:url(#SVGID_10_);}
	.st6{fill:url(#SVGID_11_);}
	.st7{fill:url(#SVGID_12_);}
	.st8{fill:url(#SVGID_13_);}
	.st9{opacity:0.3;fill:url(#SVGID_14_);}
	.st10{fill:url(#SVGID_15_);}
	.st11{opacity:0.3;}
	.st12{fill:url(#SVGID_16_);}
	.st13{fill:url(#SVGID_17_);}
	.st14{fill:url(#SVGID_18_);}
	.st15{fill:url(#SVGID_19_);}
	.st16{fill:#D8DEE8;}
	.st17{fill:#26264F;}
	.st18{fill:url(#SVGID_20_);}
	.st19{fill:url(#SVGID_21_);}
	.st20{fill:url(#SVGID_22_);}
	.st21{opacity:0.15;}
	.st22{fill:url(#SVGID_23_);}
	.st23{opacity:0.3;fill:url(#SVGID_24_);}
	.st24{opacity:0.3;fill:url(#SVGID_25_);}
	.st25{opacity:0.4;fill:#F4F7FA;}
	.st26{fill:url(#SVGID_26_);}
	.st27{fill:url(#SVGID_27_);}
	.st28{fill:url(#SVGID_28_);}
	.st29{fill:#FCB048;}
	.st30{fill:url(#SVGID_29_);}
	.st31{fill:url(#SVGID_30_);}
	.st32{fill:url(#SVGID_31_);}
	.st33{fill:url(#SVGID_32_);}
	.st34{fill:url(#SVGID_33_);}
	.st35{fill:url(#SVGID_34_);}
	.st36{fill:url(#SVGID_35_);}
	.st37{fill:url(#SVGID_36_);}
	.st38{fill:url(#SVGID_37_);}
	.st39{fill:url(#SVGID_38_);}
	.st40{fill:url(#SVGID_39_);}
	.st41{fill:url(#SVGID_40_);}
	.st42{fill:url(#SVGID_41_);}
	.st43{fill:url(#SVGID_42_);}
	.st44{fill:url(#SVGID_43_);}
	.st45{fill:url(#SVGID_44_);}
	.st46{fill:url(#SVGID_45_);}
	.st47{fill:url(#SVGID_46_);}
	.st48{fill:url(#SVGID_47_);}
	.st49{fill:url(#SVGID_48_);}
	.st50{fill:url(#SVGID_49_);}
	.st51{fill:url(#SVGID_50_);}
	.st52{fill:url(#SVGID_51_);}
	.st53{fill:url(#SVGID_52_);}
	.st54{fill:url(#SVGID_53_);}
	.st55{fill:url(#SVGID_54_);}
	.st56{fill:url(#SVGID_55_);}
	.st57{fill:url(#SVGID_56_);}
	.st58{fill:url(#SVGID_57_);}
	.st59{fill:url(#SVGID_58_);}
	.st60{fill:url(#SVGID_59_);}
	.st61{fill:url(#SVGID_60_);}
	.st62{fill:url(#SVGID_61_);}
	.st63{fill:url(#SVGID_62_);}
	.st64{fill:url(#SVGID_63_);}
	.st65{fill:url(#SVGID_64_);}
	.st66{opacity:0.3;fill:url(#SVGID_65_);}
	.st67{fill:url(#SVGID_66_);}
	.st68{fill:url(#SVGID_67_);}
	.st69{fill:url(#SVGID_68_);}
	.st70{fill:url(#SVGID_69_);}
	.st71{fill:url(#SVGID_70_);}
	.st72{fill:url(#SVGID_71_);}
	.st73{fill:url(#SVGID_72_);}
	.st74{fill:url(#SVGID_73_);}
	.st75{fill:url(#SVGID_74_);}
</style>
<g id="Background">
	<g>
		<g>
			<rect class="st0" width="3710" height="3710"/>
		</g>
	</g>
</g>
<g id="Illustration">
	<g>
		<path class="st1" d="M3012.8,990.4C2407.1,227.5,973,184.9,551.4,790C319,1123.3,416.1,1621.7,464,1867.5
			c88.2,452.5,305.5,743.8,353,805.6c115.2,149.9,394.9,514.1,815.9,597.4c719.2,142.2,1616.6-582,1666.4-1399.1
			C3327.9,1400.3,3065.2,1056.3,3012.8,990.4z"/>
		<g>
			<g>
				<g>
					<defs>
						<path id="SVGID_1_" d="M2621.8,2850.2c-86.7-99.3-199.7-259.1-237.3-473.7c-43.2-246.4,52.5-339.9,54-623.4
							c2.1-404.8-269.3-582.5-161.3-751.6c52.6-82.5,169.3-131.9,263-111.1c267.2,59.4,480.4,720.2,259.8,1106.6
							c-99.8,174.8-234,215.8-283,408.1C2473.6,2574.9,2553,2741.3,2621.8,2850.2z"/>
					</defs>
					<linearGradient id="SVGID_2_" gradientUnits="userSpaceOnUse" x1="2321.5789" y1="913.6725" x2="2842.3679" y2="2570.7278">
						<stop  offset="0" style="stop-color:#FF9085"/>
						<stop  offset="1" style="stop-color:#FB6FBB"/>
					</linearGradient>
					<use xlink:href="#SVGID_1_"  style="overflow:visible;fill:url(#SVGID_2_);"/>
					<clipPath id="SVGID_3_">
						<use xlink:href="#SVGID_1_"  style="overflow:visible;"/>
					</clipPath>
					<g class="st2">
						<path class="st0" d="M2472.1,2570.3c-8.2-53.9-11.8-108.8-10.7-163.2c2.6-125,30.1-204.7,64.9-305.5
							c22.6-65.5,48.2-139.8,71.4-240.5c43.5-188.4,54.5-252.8,49-346.4c-10.8-185.5-80.8-326.3-121.5-393.8
							c-57.8-95.7-133-178.2-223.5-245.2l2.2-2.9c90.9,67.3,166.4,150.2,224.5,246.2c40.9,67.7,111.2,209.2,122.1,395.4
							c5.5,94.1-5.5,158.6-49.1,347.5c-23.3,100.9-48.9,175.3-71.5,240.9c-34.7,100.5-62,180-64.7,304.4
							c-1.1,54.2,2.4,108.9,10.6,162.6L2472.1,2570.3z"/>
						<path class="st0" d="M2630.3,1387.7l-1.2-2.7c-52.3-117.8-160.7-162.6-242.4-179.4c-88.7-18.2-166.1-8.4-166.9-8.3l-0.5-3.6
							c0.8-0.1,78.6-10,168,8.3c81.9,16.8,190.4,61.5,243.8,178.7c8.8-11.9,47.7-67,69.9-147c23.1-83.1,32.3-210.9-54.7-347.3l3-1.9
							c87.8,137.6,78.4,266.5,55.1,350.4c-25.2,90.8-71.9,150-72.4,150.5L2630.3,1387.7z"/>
						<path class="st0" d="M2614,1810.6c-1.6,0-2.4,0-2.5,0l-1.5,0l-0.2-1.5c-18.7-129.5-81.6-204.2-131-244
							c-53.6-43.2-103.4-55.9-103.9-56l0.9-3.5c0.5,0.1,51,13,105.2,56.6c49.8,40.1,113.1,115.1,132.3,244.9c0.2,0,0.3,0,0.5,0
							c22.6,0,229.3-5.1,329.4-184.3l3.2,1.8c-55.6,99.7-143.7,144.9-207.7,165.4C2677.2,1809.4,2625.7,1810.6,2614,1810.6z"/>
						<path class="st0" d="M2597.9,2086.7c-38.7,0-61.9-8-62.2-8.1l-1.2-0.4l0-1.3c1.6-140.3-152.5-303.6-154.1-305.2l2.6-2.5
							c1.6,1.6,155.7,165,155.1,306.4c7,2.2,44.2,12.3,99.7,4.7c56.9-7.7,145.2-36.1,243-127.3l2.5,2.6
							c-98.7,92-187.8,120.6-245.3,128.3C2623.3,2085.9,2609.9,2086.7,2597.9,2086.7z"/>
					</g>
				</g>
			</g>
			<g>
				<g>
					<defs>
						<path id="SVGID_4_" d="M2427.9,2719c-45.6-72.1-104.1-190-86.9-324.9c30.2-235.4,257.2-257.6,363.6-541.1
							c85.8-228.7-16.6-334.8,109.1-515.8c21-30.3,130.5-194.4,268.8-181.9c77.9,7,130.4,66.8,140.3,78.1
							c148.9,169.8,78.5,564-123.8,816.3c-116.2,144.9-176.1,138.9-401,345.8C2565.9,2516.9,2479.3,2638.1,2427.9,2719z"/>
					</defs>
					<linearGradient id="SVGID_5_" gradientUnits="userSpaceOnUse" x1="3262.6775" y1="1149.4146" x2="3948.5105" y2="-92.9852">
						<stop  offset="3.597120e-03" style="stop-color:#E38DDD"/>
						<stop  offset="1" style="stop-color:#9571F6"/>
					</linearGradient>
					<use xlink:href="#SVGID_4_"  style="overflow:visible;fill:url(#SVGID_5_);"/>
					<clipPath id="SVGID_6_">
						<use xlink:href="#SVGID_4_"  style="overflow:visible;"/>
					</clipPath>
					<g class="st3">
						<path class="st0" d="M2441.4,2822.4c-39.8-201.6-19.3-357.1,61-462c39.3-51.4,78.5-73.5,120.1-96.9
							c44.6-25.1,90.8-51.1,138.4-116.9c46.3-63.9,53.2-109.5,62.1-167.3c8-52,17.8-116.7,59.9-215.2
							c36.8-86.3,70.3-133.5,99.8-175.2c31.9-45.1,57.1-80.7,74.8-149.3c28.8-112,16.6-234.9-36.1-365.2l3.3-1.4
							c53.1,131,65.3,254.7,36.3,367.4c-17.8,69.2-43.2,105.1-75.3,150.5c-29.4,41.5-62.7,88.6-99.4,174.5
							c-41.9,98-51.7,162.5-59.6,214.3c-8.9,58.3-15.9,104.3-62.7,168.9c-48.1,66.4-94.6,92.6-139.5,117.9
							c-41.2,23.2-80.1,45.1-119,95.9c-79.6,104.1-99.9,258.6-60.3,459.1L2441.4,2822.4z"/>
						<path class="st0" d="M2969.7,1610.8l-0.2-2.4c-0.2-2.9-25.8-295-165.4-361.2l1.6-3.3c134.6,63.8,164.4,333.3,167.2,361.7
							c142.2-55.8,224.3-153.3,268.2-225.5c47.8-78.6,61.7-144.8,61.9-145.4l3.5,0.7c-0.1,0.7-14.2,67.5-62.3,146.6
							c-44.4,73-127.6,171.8-272.2,227.8L2969.7,1610.8z"/>
						<path class="st0" d="M2848.4,1871.6c-0.9,0-1.4,0-1.4,0l-1.6,0l-0.2-1.5c-10.3-78.2-46.2-163.3-74.5-220.9
							c-30.7-62.5-59.3-107-59.6-107.4l3-2c0.3,0.4,29,45.1,59.8,107.8c28.3,57.5,64,142.2,74.6,220.4c11.5,0,85.9-1.3,180.1-30.9
							c94.1-29.6,227.8-94.2,330.1-234.5l2.9,2.1c-103,141.1-237.4,206.1-332.1,235.8C2934.7,1870.4,2859.6,1871.6,2848.4,1871.6z"
							/>
						<path class="st0" d="M2767.2,2252.4c-65,0-103.5-8.8-104.4-9l-1.9-0.4l0.5-1.8c49.2-167.1-77.2-355.6-78.5-357.5l3-2
							c1.3,1.9,127.7,190.3,79.5,358.6c20.7,4.3,211.8,39.1,459.6-72.1l1.5,3.3C2978.7,2237.8,2850.9,2252.4,2767.2,2252.4z"/>
					</g>
				</g>
			</g>
			<g>
				
					<linearGradient id="SVGID_7_" gradientUnits="userSpaceOnUse" x1="-271.331" y1="969.7551" x2="-1502.238" y2="1980.8588" gradientTransform="matrix(0.9975 -6.900000e-02 6.900000e-02 0.9975 3435.6392 969.4205)">
					<stop  offset="0" style="stop-color:#AA80F9"/>
					<stop  offset="0.9964" style="stop-color:#6165D7"/>
				</linearGradient>
				<path class="st4" d="M2397.4,2654.3c30-49.2,81.6-123.9,162.2-197.6c143.4-131.2,235.7-128.6,277-230.2
					c42.7-105.1-36-157.6,17.7-277.5c4.5-10.1,63.1-136.6,162.7-140.8c69.7-3,122,55.5,146.6,82.9
					c95.3,106.4,150.7,306.5,57.5,456.2c-88.4,141.9-265.6,167.1-322,174.7c-99,13.4-134.7-12.3-234.2,4
					C2543.8,2545.7,2453.5,2607.2,2397.4,2654.3z"/>
			</g>
		</g>
		<g>
			<g>
				<g>
					<defs>
						<path id="SVGID_8_" d="M1375.3,3018.6c45.6-72.1,104.1-190,86.9-324.9c-30.2-235.4-257.2-257.6-363.6-541.1
							c-85.8-228.7,16.6-334.8-109.1-515.8c-21-30.3-130.5-194.4-268.8-181.9c-77.9,7-130.4,66.8-140.3,78.1
							c-148.9,169.8-78.5,564,123.8,816.3c116.2,144.9,176.1,138.9,401,345.8C1237.3,2816.5,1323.9,2937.7,1375.3,3018.6z"/>
					</defs>
					<linearGradient id="SVGID_9_" gradientUnits="userSpaceOnUse" x1="5203.5684" y1="11478.3809" x2="6392.8838" y2="14061.2412">
						<stop  offset="3.597120e-03" style="stop-color:#E38DDD"/>
						<stop  offset="1" style="stop-color:#9571F6"/>
					</linearGradient>
					<use xlink:href="#SVGID_8_"  style="overflow:visible;fill:url(#SVGID_9_);"/>
					<clipPath id="SVGID_10_">
						<use xlink:href="#SVGID_8_"  style="overflow:visible;"/>
					</clipPath>
					<g class="st5">
						<path class="st0" d="M1361.8,3122l-3.5-0.7c39.6-200.5,19.3-355-60.3-459.1c-38.8-50.8-77.8-72.7-119-95.9
							c-45-25.3-91.5-51.5-139.5-117.9c-46.8-64.6-53.8-110.6-62.7-168.9c-7.9-51.8-17.8-116.3-59.6-214.3
							c-36.7-85.9-70-133-99.4-174.5c-32.1-45.4-57.5-81.3-75.3-150.5c-29-112.8-16.8-236.4,36.3-367.4l3.3,1.4
							c-52.8,130.3-64.9,253.2-36.1,365.2c17.6,68.6,42.8,104.2,74.8,149.3c29.5,41.7,62.9,88.9,99.8,175.2
							c42,98.4,51.9,163.2,59.9,215.2c8.8,57.8,15.8,103.4,62.1,167.3c47.6,65.7,93.8,91.7,138.4,116.9
							c41.5,23.4,80.8,45.5,120.1,96.9C1381.1,2765,1401.6,2920.4,1361.8,3122z"/>
						<path class="st0" d="M833.5,1910.4l-2.3-0.9c-144.6-56-227.8-154.8-272.2-227.8c-48.1-79.1-62.2-145.9-62.3-146.6l3.5-0.7
							c0.1,0.7,14.1,67,61.9,145.6c43.9,72.1,125.9,169.6,268.1,225.4c2.8-28.4,32.6-298,167.2-361.7l1.6,3.3
							C859.6,1613,834,1905,833.7,1908L833.5,1910.4z"/>
						<path class="st0" d="M954.8,2171.2c-11.1,0-86.2-1.2-181.3-31c-94.7-29.7-229.1-94.8-332.1-235.8l2.9-2.1
							c102.4,140.3,236.1,205,330.3,234.5c94.1,29.6,168.4,30.8,180,30.9c10.6-78.2,46.4-163,74.6-220.4
							c30.8-62.7,59.5-107.3,59.8-107.8l3,2c-0.3,0.4-28.9,45-59.6,107.5c-28.3,57.6-64.2,142.7-74.5,220.8l-0.2,1.5l-1.6,0
							C956.1,2171.2,955.6,2171.2,954.8,2171.2z"/>
						<path class="st0" d="M1036,2552c-83.8,0-211.5-14.6-359.3-80.9l1.5-3.3c247.8,111.2,438.8,76.4,459.6,72.1
							c-48.2-168.3,78.3-356.8,79.5-358.6l3,2c-1.3,1.9-127.7,190.3-78.5,357.5l0.5,1.8l-1.9,0.4C1139.6,2543.2,1101,2552,1036,2552
							z"/>
					</g>
				</g>
			</g>
			<g>
				
					<linearGradient id="SVGID_11_" gradientUnits="userSpaceOnUse" x1="2234.9224" y1="1443.4711" x2="1004.0152" y2="2454.5747" gradientTransform="matrix(-0.9975 -6.900000e-02 -6.900000e-02 0.9975 2900.2368 969.4205)">
					<stop  offset="0" style="stop-color:#FF9085"/>
					<stop  offset="1" style="stop-color:#FB6FBB"/>
				</linearGradient>
				<path class="st6" d="M1405.8,2953.9c-30-49.2-81.6-123.9-162.2-197.6c-143.4-131.2-235.7-128.6-277-230.2
					c-42.7-105.1,36-157.6-17.7-277.5c-4.5-10.1-63.1-136.6-162.7-140.8c-69.7-3-122,55.5-146.6,82.9
					c-95.3,106.4-150.7,306.5-57.5,456.2c88.4,141.9,265.6,167.1,322,174.7c99,13.4,134.7-12.3,234.2,4
					C1259.4,2845.3,1349.7,2906.8,1405.8,2953.9z"/>
			</g>
		</g>
		<g>
			<linearGradient id="SVGID_12_" gradientUnits="userSpaceOnUse" x1="877.8799" y1="972.0797" x2="1612.6995" y2="940.131">
				<stop  offset="0" style="stop-color:#AB316D"/>
				<stop  offset="1" style="stop-color:#792D3D"/>
			</linearGradient>
			<path class="st7" d="M2116,1341c-0.7,0.1-1.3,0.1-2,0.1c-10.6,0-19.7-8.7-20.7-20.2c-18.2-205.4-80.6-400.6-175.6-549.5
				c-84.2-132-184.3-210.7-268-210.7c-0.1,0-0.2,0-0.3,0c-304.9,0.6-368.7,752.5-369.3,760.1c-1,12.3-11,21.4-22.5,20.4
				c-11.5-1.1-19.9-11.9-19-24.2c2.6-32.7,67.9-800.2,410.7-801c0.1,0,0.2,0,0.4,0c98.9,0,209.1,83.9,302.4,230.2
				c98.9,155.1,163.8,357.8,182.7,570.6C2135.8,1329,2127.4,1339.9,2116,1341z"/>
			<linearGradient id="SVGID_13_" gradientUnits="userSpaceOnUse" x1="801.0699" y1="2168.7209" x2="1488.327" y2="2168.7209">
				<stop  offset="0" style="stop-color:#FFC444"/>
				<stop  offset="0.9964" style="stop-color:#F36F56"/>
			</linearGradient>
			<path class="st8" d="M843.8,2888.5l401.3,218.2l243.2-801.5l-400.7-1074.5L974,1260.6L801.6,2803.8
				C797.7,2838.8,814.6,2872.6,843.8,2888.5z"/>
			<linearGradient id="SVGID_14_" gradientUnits="userSpaceOnUse" x1="986.6119" y1="2168.7205" x2="1488.327" y2="2168.7205">
				<stop  offset="0" style="stop-color:#FFC444"/>
				<stop  offset="0.9964" style="stop-color:#F36F56"/>
			</linearGradient>
			<path class="st9" d="M1488.3,2305.2l-400.7-1074.5l-67,17.6c-9.3,143.5-5.2,261.5,1.1,347.5c26.9,365.8,116.1,467.7,72.9,722.9
				c-35.9,212.2-114.4,241-107.5,383.8c7.5,155.5,108.4,285.7,228.5,388.1l29.6,16.1L1488.3,2305.2z"/>
			<linearGradient id="SVGID_15_" gradientUnits="userSpaceOnUse" x1="1828.7153" y1="2052.5181" x2="3028.8772" y2="4074.6089">
				<stop  offset="0" style="stop-color:#FFC444"/>
				<stop  offset="0.9964" style="stop-color:#F36F56"/>
			</linearGradient>
			<polygon class="st10" points="1087.6,1230.7 2599.1,1313 3079.4,2948 1245.2,3106.7 			"/>
			<g class="st11">
				<linearGradient id="SVGID_16_" gradientUnits="userSpaceOnUse" x1="1825.2189" y1="1873.0604" x2="2796.8135" y2="4154.8379">
					<stop  offset="0" style="stop-color:#FFC444"/>
					<stop  offset="0.9964" style="stop-color:#F36F56"/>
				</linearGradient>
				<path class="st12" d="M2599.1,1313l-788.2-42.9c-13.3,20.9-30.9,55-34.2,98.4c-19.4,257.1,511,340.3,558.5,655.8
					c36.2,240.2-186.4,517.4-385.1,640.9c-209.3,130.1-351.1,64.2-492.6,208.7c-62.2,63.5-100.1,142.8-122.6,225.1l1744.5-151
					L2599.1,1313z"/>
			</g>
			<linearGradient id="SVGID_17_" gradientUnits="userSpaceOnUse" x1="2004.4583" y1="306.1031" x2="1684.9854" y2="3033.0388">
				<stop  offset="0" style="stop-color:#AB316D"/>
				<stop  offset="1" style="stop-color:#792D3D"/>
			</linearGradient>
			<path class="st13" d="M1551.2,1377.9c-9.4,0-18-7-20.2-17.3c-4.3-19.5-102.6-479.6,36.1-705.5c39.7-64.7,95.2-104.2,165-117.5
				c358.4-67.8,579,758.9,588.2,794.1c3.1,11.9-3.3,24.2-14.4,27.6c-11.1,3.4-22.6-3.6-25.7-15.5c-2.2-8.2-219.4-823.2-540.9-762.2
				c-58.9,11.1-103.8,43.2-137.5,98c-128.9,209.9-31.3,666.1-30.3,670.6c2.6,12-4.3,24-15.5,26.9
				C1554.4,1377.7,1552.8,1377.9,1551.2,1377.9z"/>
			<linearGradient id="SVGID_18_" gradientUnits="userSpaceOnUse" x1="2172.6223" y1="199.3721" x2="1248.2751" y2="1957.8828">
				<stop  offset="0" style="stop-color:#AB316D"/>
				<stop  offset="1" style="stop-color:#792D3D"/>
			</linearGradient>
			<ellipse class="st14" cx="1551.4" cy="1381.3" rx="58.2" ry="62.5"/>
			<linearGradient id="SVGID_19_" gradientUnits="userSpaceOnUse" x1="2755.0608" y1="528.7753" x2="1830.7175" y2="2287.2791">
				<stop  offset="0" style="stop-color:#AB316D"/>
				<stop  offset="1" style="stop-color:#792D3D"/>
			</linearGradient>
			<ellipse class="st15" cx="2310" cy="1375.5" rx="58.2" ry="62.5"/>
			<path class="st16" d="M2714.7,2099.7l-469.2-457.6c-9.9-9.6-24.1-12.3-36.4-6.9l-250.4,109.3c-21.1,9.2-28.4,37.4-14.7,57
				l408.7,585.2c11.3,16.2,32.5,19.7,47.9,8l311-236.9C2729.6,2144,2731.2,2115.8,2714.7,2099.7z M2178.1,1803
				c-15.8,11.4-40.7,1.3-55.7-22.5c-14.9-23.8-14.2-52.4,1.6-63.9c15.8-11.4,40.7-1.3,55.7,22.5
				C2194.7,1763,2193.9,1791.6,2178.1,1803z"/>
			<path class="st1" d="M2714.7,2093.5l-469.2-457.6c-9.9-9.6-24.1-12.3-36.4-6.9l-250.4,109.3c-21.1,9.2-28.4,37.4-14.7,57
				l408.7,585.2c11.3,16.2,32.5,19.7,47.9,8l311-236.9C2729.6,2137.8,2731.2,2109.5,2714.7,2093.5z M2178.1,1796.8
				c-15.8,11.4-40.7,1.3-55.7-22.5c-14.9-23.8-14.2-52.4,1.6-63.9c15.8-11.4,40.7-1.3,55.7,22.5
				C2194.7,1756.8,2193.9,1785.4,2178.1,1796.8z"/>
			<g>
				<path class="st17" d="M2080.6,1684.4c-1.5,0-2.9-0.9-3.5-2.3c-16.3-38.3-38.2-71.4-65.2-98.4c-73.9-73.9-169.4-85.5-261.8-96.7
					c-91.9-11.2-178.7-21.7-230.5-94.9c-13.1-18.5-33.5-52-22.6-68.1c4.4-6.5,13.1-9.4,26-8.8c2.1,0.1,3.8,1.9,3.7,4
					c-0.1,2.1-1.9,3.8-4,3.7c-6.9-0.3-15.8,0.4-19.3,5.5c-5.8,8.6,3,31.8,22.5,59.3c49.9,70.3,135,80.7,225.2,91.7
					c93.6,11.4,190.5,23.2,266.3,98.9c27.7,27.7,50.2,61.6,66.8,100.8c0.8,2-0.1,4.2-2,5C2081.6,1684.3,2081.1,1684.4,2080.6,1684.4
					z"/>
			</g>
			<g>
				<path class="st17" d="M2120.7,1761.8c-1,0-2-0.4-2.7-1.1c-1.5-1.5-1.5-3.9,0-5.4c0.3-0.3,32.5-32.8,32.3-76.2
					c-0.1-26.6-12.2-52-36-75.4c-50.5-49.6-184.4-107-302.6-157.6c-72.1-30.9-140.3-60.1-185-85.3c-10.1-5.7-20.9-11.1-31.9-16.1
					c-1.9-0.9-2.8-3.2-1.9-5.1c0.9-1.9,3.2-2.8,5.1-1.9c11.2,5.1,22.2,10.6,32.5,16.4c44.4,25,112.3,54.1,184.2,84.9
					c118.8,50.9,253.4,108.6,304.9,159.2c25.3,24.9,38.2,52.1,38.3,80.9c0.1,46.6-33.2,80.2-34.6,81.6
					C2122.7,1761.5,2121.7,1761.8,2120.7,1761.8z"/>
			</g>
			<path class="st0" d="M2714.7,2093.5l-469.2-457.6c-9.9-9.6-24.1-12.3-36.4-6.9l-22.3,9.7c5.8,21.3,14.6,45.2,27.9,69.6
				c69.3,127.1,183,121.6,209.3,209.8c23.3,78.2-54.8,120.1-65.1,229.8c-5.1,54.8,6.6,127.7,69.5,219.3l283.2-215.7
				C2729.6,2137.8,2731.2,2109.5,2714.7,2093.5z"/>
			<g>
				<path class="st16" d="M2293.7,1937.7c25.7,42.5,20.4,77.8-0.1,92.1c-21.6,15-52.5,3.8-75.6-34.4c-21.9-36.3-23.1-74.6,1.1-91.4
					C2243.5,1887,2272.7,1903.1,2293.7,1937.7z M2241.8,1977c12.9,21.3,27.1,33.1,36.7,26.4c9.4-6.5,5.6-23.5-8.2-46.3
					c-12.5-20.6-26-33.8-36.3-26.7C2224.3,1937.3,2229.5,1956.7,2241.8,1977z M2346.7,2113.6l-45.7-266.7l17.9-12.5l45.5,266.9
					L2346.7,2113.6z M2446.6,1951c25.7,42.5,20.4,77.8-0.1,92.1c-21.3,14.9-52.3,3.6-75.6-34.4c-21.9-36.3-23.1-74.6,1.1-91.4
					C2396.4,1900.3,2425.7,1916.3,2446.6,1951z M2395,1990.1c12.6,21.4,26.9,33.2,36.5,26.5c9.4-6.5,5.6-23.5-8.2-46.3
					c-12.5-20.6-25.8-34-36.1-26.8C2377.3,1950.5,2382.7,1969.8,2395,1990.1z"/>
			</g>
			<path class="st16" d="M2356.5,2261.1c-6.3,0-12.4-3.4-15.9-9.6c-5.3-9.4-2.5-21.7,6.3-27.5l226-147.3c8.8-5.7,20.2-2.7,25.6,6.7
				c5.3,9.4,2.5,21.7-6.3,27.5l-226,147.3C2363.2,2260.2,2359.8,2261.1,2356.5,2261.1z"/>
		</g>
		<g>
			<g>
				<linearGradient id="SVGID_20_" gradientUnits="userSpaceOnUse" x1="495.4548" y1="2628.0298" x2="706.1257" y2="2661.8875">
					<stop  offset="0" style="stop-color:#AA80F9"/>
					<stop  offset="0.9964" style="stop-color:#6165D7"/>
				</linearGradient>
				<path class="st18" d="M2058.3,3112.7c0,20.5-14.6,38.2-32.4,39.2l-1259.3,76.9c-23.9,1.4-50.8-18.8-50.8-42.6v-881.3
					c0-23.9,27.6-43.9,51.4-42.9l1258.7,53.9c17.9,0.7,32.4,18.1,32.4,38.7V3112.7z"/>
				<linearGradient id="SVGID_21_" gradientUnits="userSpaceOnUse" x1="1283.7112" y1="2622.6909" x2="2156.4919" y2="3664.7607">
					<stop  offset="0" style="stop-color:#AA80F9"/>
					<stop  offset="0.9964" style="stop-color:#6165D7"/>
				</linearGradient>
				<path class="st19" d="M2081.6,3114.2c0,20.6-14.6,38.4-32.6,39.4L776.2,3229c-24,1.4-43.7-17-43.7-41v-885.6
					c0-24,19.7-42.8,43.7-41.8l1272.8,52.8c18,0.7,32.6,18.2,32.6,38.8V3114.2z"/>
				<g>
					<linearGradient id="SVGID_22_" gradientUnits="userSpaceOnUse" x1="1061.5411" y1="2913.1289" x2="2205.1848" y2="3274.28">
						<stop  offset="0" style="stop-color:#444B8C"/>
						<stop  offset="0.9964" style="stop-color:#26264F"/>
					</linearGradient>
					<polygon class="st20" points="2081.6,2906.6 732.6,2975.8 732.6,3138 2081.6,3058.8 					"/>
				</g>
				<g>
					<g class="st21">
						
							<linearGradient id="SVGID_23_" gradientUnits="userSpaceOnUse" x1="890.6346" y1="2653.5132" x2="1469.9413" y2="2653.5132" gradientTransform="matrix(0.9999 1.510000e-02 -1.510000e-02 0.9999 8.0381 -12.9012)">
							<stop  offset="0" style="stop-color:#FF9085"/>
							<stop  offset="1" style="stop-color:#FB6FBB"/>
						</linearGradient>
						<path class="st22" d="M1130.7,2553.6c-1.5,100.6-64.5,152.9-134.6,152.7c-76.4-0.3-137.6-58.8-136.1-155
							c1.4-91.4,59-156.5,144.5-150.1C1087.6,2407.3,1132,2471.4,1130.7,2553.6z M949.5,2551.6c-0.8,52.5,16.4,90.7,49.9,91.3
							c32.3,0.6,48.4-32.3,49.2-87.4c0.8-49.8-12-89.1-47.3-91.2C967,2462.3,950.2,2501.4,949.5,2551.6z M1020.3,2875.2l243.2-440.3
							c4.7-8.4,13.8-13.4,23.4-12.6h0c17.8,1.3,28.3,20.6,19.8,36.3l-240.5,440.2c-4.1,7.6-11.9,12.4-20.5,12.8l-2.7,0.1
							C1023.7,2912.5,1011,2892,1020.3,2875.2z M1436.4,2751.1c-1.4,93.2-55.4,144.2-115.4,146.8c-64.5,2.8-116.5-48.6-115.9-137.2
							c1.3-84.2,50.4-146.9,123.4-144.9C1399.6,2617.8,1437.6,2675,1436.4,2751.1z M1282,2757.2c-1.4,48.5,13.2,83,41.9,82.1
							c27.6-0.8,41.4-31.9,42.2-82.8c0.7-46.1-9.6-81.8-39.7-82.1C1296.4,2674,1282.7,2710.9,1282,2757.2z"/>
					</g>
					<g>
						<path class="st0" d="M1142.5,2548.9c-1.5,100.6-64.5,152.9-134.6,152.7c-76.4-0.3-137.6-58.8-136.1-155
							c1.4-91.4,59-156.5,144.5-150.1C1099.3,2402.7,1143.7,2466.7,1142.5,2548.9z M961.2,2546.9c-0.8,52.5,16.4,90.7,49.9,91.3
							c32.3,0.6,48.4-32.3,49.2-87.4c0.8-49.8-12-89.1-47.3-91.2C978.8,2457.6,962,2496.7,961.2,2546.9z M1032.1,2870.5l243.2-440.3
							c4.7-8.4,13.8-13.4,23.4-12.6h0c17.8,1.3,28.3,20.6,19.8,36.3l-240.5,440.2c-4.1,7.6-11.9,12.4-20.5,12.8l-2.7,0.1
							C1035.5,2907.8,1022.8,2887.3,1032.1,2870.5z M1448.2,2746.4c-1.4,93.2-55.4,144.2-115.4,146.8
							c-64.5,2.8-116.5-48.6-115.9-137.2c1.3-84.2,50.4-146.9,123.4-144.9C1411.3,2613.1,1449.3,2670.3,1448.2,2746.4z
							 M1293.7,2752.5c-1.4,48.5,13.2,83,41.9,82.1c27.6-0.8,41.4-31.9,42.2-82.8c0.7-46.1-9.6-81.8-39.7-82.1
							C1308.1,2669.3,1294.4,2706.2,1293.7,2752.5z"/>
					</g>
				</g>
				<linearGradient id="SVGID_24_" gradientUnits="userSpaceOnUse" x1="1253.4344" y1="2116.3708" x2="2126.2156" y2="3158.4412">
					<stop  offset="0" style="stop-color:#AA80F9"/>
					<stop  offset="0.9964" style="stop-color:#6165D7"/>
				</linearGradient>
				<path class="st23" d="M2049,2313.5l-1258.1-52.2c56.8,168.2,138.1,243.5,208,280.4c133,70.2,228.4,3.2,342.3,94
					c116.9,93.2,72.4,208.3,195.6,285.9c92.6,58.3,152.3,15,248.3,67.7c71.1,39,115.6,105.1,144,171.4l120-7.1
					c18-1.1,32.6-18.8,32.6-39.4v-761.8C2081.6,2331.7,2067,2314.2,2049,2313.5z"/>
				<linearGradient id="SVGID_25_" gradientUnits="userSpaceOnUse" x1="1512.6396" y1="2936.1892" x2="2081.6472" y2="2936.1892">
					<stop  offset="0" style="stop-color:#AA80F9"/>
					<stop  offset="0.9964" style="stop-color:#6165D7"/>
				</linearGradient>
				<path class="st24" d="M2063.9,2716.5l-30.7-29.1l-29.1,30.7l-30.7-29.1l-29.1,30.7l-30.7-29.1l-29.1,30.7l-30.7-29.1l-29.1,30.7
					l-30.7-29.1l-29.1,30.7l-30.7-29.1l-29.1,30.7l-30.7-29.1l-29.1,30.7l-30.7-29.1l-29.1,30.7l-39.2-37.2c0,14.9,0,459.8,0,459.8
					s-1.6,26.3-33.4,33.3l542.9-39.8c6.2-0.5,12-2.2,17.2-4.9c5.5-7,8.9-16.2,8.9-26.1v-416.3L2063.9,2716.5z"/>
			</g>
			<g>
				<path class="st0" d="M2151.2,2701.3v418.9c0,23.4-18.6,42.8-41.9,44.5l-172.2,12.6l-372,27.2c31.8-6.9,32.5-33.3,32.5-33.3
					s0-445,0-459.8l40,37.2l21-21.7l8.8-9l30.8,29.1l29.2-30.7l30.7,29.1l29.1-30.7l30.7,29.1l29.1-30.7l30.7,29.1l29.1-30.7
					l30.7,29.1l29.1-30.7l30.7,29.1l29.1-30.7l30.7,29.1l29.1-30.7l31.3,29.1L2151.2,2701.3z"/>
				<g>
					<path class="st16" d="M2088.5,2944.6l-67.1,3c-4.5,0.2-8.1,3.9-8.1,8.4v30.8c0,4.9,4.1,8.7,8.9,8.4l67.1-3.8c4.5-0.3,8-4,8-8.4
						V2953C2097.4,2948.2,2093.3,2944.3,2088.5,2944.6z"/>
					<path class="st16" d="M2088.4,3004.1l-67.1,3.8c-4.5,0.3-8,4-8,8.4v32.2c0,4.9,4.1,8.7,9,8.4l67.1-4.3c4.5-0.3,7.9-4,7.9-8.4
						v-31.7C2097.4,3007.7,2093.3,3003.8,2088.4,3004.1z"/>
					<path class="st16" d="M2097.4,2859.1V2804c0-4.8-4-8.6-8.8-8.4l-67.1,2.4c-4.5,0.2-8.1,3.9-8.1,8.4v55.8c0,4.8,4,8.7,8.8,8.4
						l67.1-3C2093.8,2867.4,2097.4,2863.7,2097.4,2859.1z"/>
				</g>
				<g>
					<path class="st16" d="M1949,2950.8l-273.4,12.3c-4.5,0.2-8.1,3.9-8.1,8.4v34.7c0,4.9,4.1,8.7,8.9,8.4l273.4-15.4
						c4.5-0.3,8-4,8-8.4v-31.6C1957.9,2954.5,1953.8,2950.6,1949,2950.8z"/>
					<path class="st16" d="M1948.9,3012l-273.4,15.4c-4.5,0.3-8,4-8,8.4v34.8c0,4.9,4.1,8.7,9,8.4l273.4-17.5c4.5-0.3,7.9-4,7.9-8.4
						v-32.7C1957.9,3015.6,1953.8,3011.7,1948.9,3012z"/>
					<path class="st16" d="M1957.9,2865.4V2809c0-4.8-4-8.6-8.8-8.4l-273.4,9.8c-4.5,0.2-8.1,3.9-8.1,8.4v58.9c0,4.8,4,8.7,8.8,8.4
						l273.4-12.3C1954.3,2873.7,1957.9,2869.9,1957.9,2865.4z"/>
				</g>
				<path class="st25" d="M1936.8,3177.3l-371.9,27.2c31.8-6.9,32.7-33.3,32.7-33.3s0-445,0-459.8l40,37.2l21-21.7
					c17.5,15.8,31.5,41.2,35.4,81.4c13,134,75.8,125.1,149.8,130.2c74.1,5,108.2,90.8,78.2,157
					C1908.7,3125.2,1914.1,3155,1936.8,3177.3z"/>
			</g>
		</g>
		<g>
			<g>
				<linearGradient id="SVGID_26_" gradientUnits="userSpaceOnUse" x1="655.8616" y1="3236.5471" x2="1225.4637" y2="3236.5471">
					<stop  offset="0" style="stop-color:#FCB148"/>
					<stop  offset="5.207239e-02" style="stop-color:#FDBA46"/>
					<stop  offset="0.1424" style="stop-color:#FFC244"/>
					<stop  offset="0.3183" style="stop-color:#FFC444"/>
					<stop  offset="0.4849" style="stop-color:#FDB946"/>
					<stop  offset="0.7754" style="stop-color:#F99C4D"/>
					<stop  offset="0.8658" style="stop-color:#F8924F"/>
					<stop  offset="1" style="stop-color:#F8924F"/>
				</linearGradient>
				<path class="st26" d="M698.2,3193v54.9c0,17.7,110.8,32.1,247.6,32.1s247.6-14.4,247.6-32.1V3193H698.2z"/>
				<linearGradient id="SVGID_27_" gradientUnits="userSpaceOnUse" x1="943.2804" y1="3172.3835" x2="973.3092" y2="3423.7686">
					<stop  offset="0" style="stop-color:#FFDB44"/>
					<stop  offset="1" style="stop-color:#FEEF06"/>
				</linearGradient>
				<path class="st27" d="M1193.3,3193c0,17.7-110.8,32.1-247.6,32.1s-247.6-14.4-247.6-32.1c0-17.7,110.8-32.1,247.6-32.1
					S1193.3,3175.3,1193.3,3193z"/>
				<linearGradient id="SVGID_28_" gradientUnits="userSpaceOnUse" x1="941.9747" y1="3161.1729" x2="951.197" y2="3238.3774">
					<stop  offset="0" style="stop-color:#FFDB44"/>
					<stop  offset="1" style="stop-color:#FEEF06"/>
				</linearGradient>
				<path class="st28" d="M945.7,3227.4c-121.1,0-247.7-11.6-247.7-33.9c0-1.2,0.4-3.4,1.7-3.4c1.2,0,0.7,1.7,0.7,2.9
					c0,14.1,100.8,29.9,245.3,29.9c144.6,0,245.3-15.8,245.3-29.9c0-1.2,0.2-2.4,1.4-2.4s0.9,1.6,0.9,2.9
					C1193.5,3215.8,1066.8,3227.4,945.7,3227.4z"/>
				<g>
					<path class="st29" d="M922.4,3194.8c2.4-1.7,5-3.3,7.8-5c2.7-1.6,6.3-3.1,10.6-4.4c4.3-1.3,9.8-2.4,16.3-3.2
						c6.5-0.8,14.7-1.3,24.4-1.3c9.6,0,18.5,0.3,26.9,0.9c8.4,0.7,15.8,1.6,22.2,2.9c6.4,1.3,11.6,2.9,15.6,4.8
						c4,1.9,6.3,4.1,7.1,6.6l27.9,0.3c2,0,3.8,0.2,5.3,0.5c1.6,0.3,2.3,0.7,2.3,1.2l0,2.3l-35.8-0.3c-1.3,2.8-4.5,5.4-9.6,7.7
						c-5.1,2.3-11.7,4.4-19.6,6.1l-13.1-1.8c-1.2-0.2-2.1-0.4-2.9-0.7c-0.8-0.3-1.1-0.6-1.1-0.9c0-0.4,1-0.9,3-1.5
						c2-0.6,4.3-1.3,6.8-2.1c2.5-0.8,5-1.8,7.5-3c2.4-1.1,4.1-2.5,4.9-4.1l-84.6-0.8c-2.2,1.6-4.7,3.2-7.5,4.8
						c-2.8,1.6-6.4,3-11,4.3c-4.6,1.3-10.2,2.3-17,3.1c-6.8,0.8-15.3,1.2-25.7,1.3c-7.8,0-15.3-0.3-22.7-0.9
						c-7.4-0.6-14-1.6-19.7-2.8c-5.7-1.2-10.4-2.8-14.1-4.6c-3.7-1.8-5.7-3.9-6.2-6.3l-22.9-0.2c-2,0-3.8-0.2-5.4-0.5
						c-1.6-0.3-2.4-0.7-2.4-1.2l0-2.3l31.4,0.3c1.4-2.4,4.2-4.5,8.6-6.3c4.3-1.8,9.7-3.4,15.9-4.8l10.5,1.4c3.2,0.4,4.8,1,4.8,1.6
						c0,0.3-0.6,0.7-2,1.2c-1.3,0.5-2.9,1.1-4.7,1.7c-1.8,0.7-3.5,1.5-5.2,2.4c-1.7,0.9-3,1.9-3.8,3.1L922.4,3194.8z M844.9,3197.9
						c0.6,1.5,2,2.8,4.2,3.9c2.1,1.1,4.8,2,8,2.7c3.2,0.7,6.8,1.2,10.7,1.5c4,0.3,8.2,0.5,12.5,0.5c5.1,0,9.5-0.2,13.3-0.7
						c3.8-0.4,7.1-1,9.9-1.7c2.8-0.7,5.4-1.5,7.5-2.5c2.1-0.9,4-2,5.7-3.1L844.9,3197.9z M1029.1,3195.9c-0.6-1.5-2.2-2.9-4.6-4
						c-2.4-1.1-5.5-2.1-9.2-2.9c-3.7-0.8-8-1.4-13-1.7c-4.9-0.4-10.4-0.6-16.3-0.5c-5.3,0-9.9,0.3-13.7,0.7c-3.8,0.4-7.1,1-9.9,1.8
						c-2.8,0.8-5.2,1.6-7.1,2.6c-2,1-3.8,2.1-5.5,3.2L1029.1,3195.9z"/>
				</g>
				
					<linearGradient id="SVGID_29_" gradientUnits="userSpaceOnUse" x1="718.6047" y1="897.5552" x2="727.7944" y2="974.4861" gradientTransform="matrix(-1 0 0 -1 1669.249 4127.8389)">
					<stop  offset="3.597120e-03" style="stop-color:#F36F56"/>
					<stop  offset="0.3059" style="stop-color:#F99C4C"/>
					<stop  offset="0.545" style="stop-color:#FDB946"/>
					<stop  offset="0.6817" style="stop-color:#FFC444"/>
					<stop  offset="0.8038" style="stop-color:#FFC244"/>
					<stop  offset="0.8667" style="stop-color:#FEBA46"/>
					<stop  offset="0.916" style="stop-color:#FCAD49"/>
					<stop  offset="0.958" style="stop-color:#F99A4D"/>
					<stop  offset="0.9955" style="stop-color:#F58152"/>
					<stop  offset="1" style="stop-color:#F57E53"/>
				</linearGradient>
				<path class="st30" d="M945.8,3164.4c-110.4,0-225.3,9.7-243.7,28.5c0.7,0.7,1.4,1.4,2,2.1c15.5-13.1,110.4-26.2,241.7-26.2
					c134.7,0,231.1,13.8,242.8,27.2c0.6-0.7,1.2-1.4,1.9-2.1C1175.2,3174.5,1058.1,3164.4,945.8,3164.4z"/>
			</g>
			<g>
				<linearGradient id="SVGID_30_" gradientUnits="userSpaceOnUse" x1="587.0421" y1="3178.8711" x2="1156.6436" y2="3178.8711">
					<stop  offset="0" style="stop-color:#FCB148"/>
					<stop  offset="5.207239e-02" style="stop-color:#FDBA46"/>
					<stop  offset="0.1424" style="stop-color:#FFC244"/>
					<stop  offset="0.3183" style="stop-color:#FFC444"/>
					<stop  offset="0.4849" style="stop-color:#FDB946"/>
					<stop  offset="0.7754" style="stop-color:#F99C4D"/>
					<stop  offset="0.8658" style="stop-color:#F8924F"/>
					<stop  offset="1" style="stop-color:#F8924F"/>
				</linearGradient>
				<path class="st31" d="M629.4,3135.4v54.9c0,17.7,110.8,32.1,247.6,32.1c136.7,0,247.6-14.4,247.6-32.1v-54.9H629.4z"/>
				<linearGradient id="SVGID_31_" gradientUnits="userSpaceOnUse" x1="874.4606" y1="3114.708" x2="904.4893" y2="3366.0925">
					<stop  offset="0" style="stop-color:#FFDB44"/>
					<stop  offset="1" style="stop-color:#FEEF06"/>
				</linearGradient>
				<path class="st32" d="M1124.5,3135.4c0,17.7-110.8,32.1-247.6,32.1c-136.7,0-247.6-14.4-247.6-32.1
					c0-17.7,110.8-32.1,247.6-32.1C1013.6,3103.2,1124.5,3117.6,1124.5,3135.4z"/>
				<linearGradient id="SVGID_32_" gradientUnits="userSpaceOnUse" x1="873.155" y1="3103.4973" x2="882.3773" y2="3180.7014">
					<stop  offset="0" style="stop-color:#FFDB44"/>
					<stop  offset="1" style="stop-color:#FEEF06"/>
				</linearGradient>
				<path class="st33" d="M876.9,3169.7c-121.1,0-247.7-11.6-247.7-33.9c0-1.2,0.4-3.4,1.7-3.4c1.2,0,0.7,1.7,0.7,2.9
					c0,14.1,100.8,29.9,245.3,29.9s245.3-15.8,245.3-29.9c0-1.2,0.2-2.4,1.4-2.4c1.2,0,0.9,1.6,0.9,2.9
					C1124.6,3158.1,998,3169.7,876.9,3169.7z"/>
				<g>
					<path class="st29" d="M853.5,3137.1c2.4-1.7,5-3.3,7.8-5c2.7-1.6,6.3-3.1,10.6-4.4c4.3-1.3,9.8-2.4,16.3-3.2
						c6.5-0.8,14.7-1.3,24.4-1.3c9.6,0,18.5,0.3,26.9,0.9c8.4,0.7,15.8,1.6,22.2,2.9c6.4,1.3,11.6,2.9,15.6,4.8
						c4,1.9,6.3,4.1,7.1,6.6l27.9,0.3c2,0,3.8,0.2,5.3,0.5c1.6,0.3,2.3,0.7,2.3,1.2l0,2.3l-35.8-0.3c-1.3,2.8-4.5,5.4-9.6,7.7
						c-5.1,2.3-11.7,4.4-19.6,6.1l-13.1-1.8c-1.2-0.2-2.1-0.4-2.9-0.7c-0.8-0.3-1.1-0.6-1.1-0.9c0-0.4,1-0.9,3-1.5
						c2-0.6,4.3-1.3,6.8-2.1c2.5-0.8,5-1.8,7.5-3c2.4-1.1,4.1-2.5,4.9-4.1l-84.6-0.8c-2.2,1.6-4.7,3.2-7.5,4.8
						c-2.8,1.6-6.4,3-11,4.3c-4.6,1.3-10.2,2.3-17,3.1c-6.8,0.8-15.3,1.2-25.7,1.3c-7.8,0-15.3-0.3-22.7-0.9
						c-7.4-0.6-14-1.6-19.7-2.8c-5.7-1.2-10.4-2.8-14.1-4.6c-3.7-1.8-5.7-3.9-6.2-6.3l-22.9-0.2c-2,0-3.8-0.2-5.4-0.5
						c-1.6-0.3-2.4-0.7-2.4-1.2l0-2.3l31.4,0.3c1.4-2.4,4.2-4.5,8.6-6.3c4.3-1.8,9.7-3.4,15.9-4.8l10.5,1.4c3.2,0.4,4.8,1,4.8,1.6
						c0,0.3-0.6,0.7-2,1.2c-1.3,0.5-2.9,1.1-4.7,1.7c-1.8,0.7-3.5,1.5-5.2,2.4c-1.7,0.9-3,1.9-3.8,3.1L853.5,3137.1z M776.1,3140.3
						c0.6,1.5,2,2.8,4.2,3.9c2.1,1.1,4.8,2,8,2.7c3.2,0.7,6.8,1.2,10.7,1.5c4,0.3,8.2,0.5,12.5,0.5c5.1,0,9.5-0.2,13.3-0.7
						c3.8-0.4,7.1-1,9.9-1.7c2.8-0.7,5.4-1.5,7.5-2.5c2.1-0.9,4-2,5.7-3.1L776.1,3140.3z M960.3,3138.2c-0.6-1.5-2.2-2.9-4.6-4
						c-2.4-1.1-5.5-2.1-9.2-2.9c-3.7-0.8-8-1.4-13-1.7c-4.9-0.4-10.4-0.6-16.3-0.5c-5.3,0-9.9,0.3-13.7,0.7c-3.8,0.4-7.1,1-9.9,1.8
						c-2.8,0.8-5.2,1.6-7.1,2.6c-2,1-3.8,2.1-5.5,3.2L960.3,3138.2z"/>
				</g>
				
					<linearGradient id="SVGID_33_" gradientUnits="userSpaceOnUse" x1="787.4249" y1="955.2313" x2="796.6145" y2="1032.1619" gradientTransform="matrix(-1 0 0 -1 1669.249 4127.8389)">
					<stop  offset="3.597120e-03" style="stop-color:#F36F56"/>
					<stop  offset="0.3059" style="stop-color:#F99C4C"/>
					<stop  offset="0.545" style="stop-color:#FDB946"/>
					<stop  offset="0.6817" style="stop-color:#FFC444"/>
					<stop  offset="0.8038" style="stop-color:#FFC244"/>
					<stop  offset="0.8667" style="stop-color:#FEBA46"/>
					<stop  offset="0.916" style="stop-color:#FCAD49"/>
					<stop  offset="0.958" style="stop-color:#F99A4D"/>
					<stop  offset="0.9955" style="stop-color:#F58152"/>
					<stop  offset="1" style="stop-color:#F57E53"/>
				</linearGradient>
				<path class="st34" d="M877,3106.7c-110.4,0-225.3,9.7-243.7,28.5c0.7,0.7,1.4,1.4,2,2.1c15.5-13.1,110.4-26.2,241.7-26.2
					c134.7,0,231.1,13.8,242.8,27.2c0.6-0.7,1.2-1.4,1.9-2.1C1106.4,3116.8,989.3,3106.7,877,3106.7z"/>
			</g>
			<g>
				<linearGradient id="SVGID_34_" gradientUnits="userSpaceOnUse" x1="646.4239" y1="3121.3643" x2="1216.0259" y2="3121.3643">
					<stop  offset="0" style="stop-color:#FCB148"/>
					<stop  offset="5.207239e-02" style="stop-color:#FDBA46"/>
					<stop  offset="0.1424" style="stop-color:#FFC244"/>
					<stop  offset="0.3183" style="stop-color:#FFC444"/>
					<stop  offset="0.4849" style="stop-color:#FDB946"/>
					<stop  offset="0.7754" style="stop-color:#F99C4D"/>
					<stop  offset="0.8658" style="stop-color:#F8924F"/>
					<stop  offset="1" style="stop-color:#F8924F"/>
				</linearGradient>
				<path class="st35" d="M688.8,3077.8v54.9c0,17.7,110.8,32.1,247.6,32.1c136.7,0,247.6-14.4,247.6-32.1v-54.9H688.8z"/>
				<linearGradient id="SVGID_35_" gradientUnits="userSpaceOnUse" x1="933.8427" y1="3057.2012" x2="963.8714" y2="3308.5859">
					<stop  offset="0" style="stop-color:#FFDB44"/>
					<stop  offset="1" style="stop-color:#FEEF06"/>
				</linearGradient>
				<path class="st36" d="M1183.9,3077.8c0,17.7-110.8,32.1-247.6,32.1c-136.7,0-247.6-14.4-247.6-32.1
					c0-17.7,110.8-32.1,247.6-32.1C1073,3045.7,1183.9,3060.1,1183.9,3077.8z"/>
				<linearGradient id="SVGID_36_" gradientUnits="userSpaceOnUse" x1="932.5372" y1="3045.9905" x2="941.7595" y2="3123.1946">
					<stop  offset="0" style="stop-color:#FFDB44"/>
					<stop  offset="1" style="stop-color:#FEEF06"/>
				</linearGradient>
				<path class="st37" d="M936.3,3112.2c-121.1,0-247.7-11.6-247.7-33.9c0-1.2,0.4-3.4,1.7-3.4c1.2,0,0.7,1.7,0.7,2.9
					c0,14.1,100.8,29.9,245.3,29.9s245.3-15.8,245.3-29.9c0-1.2,0.2-2.4,1.4-2.4c1.2,0,0.9,1.6,0.9,2.9
					C1184,3100.6,1057.4,3112.2,936.3,3112.2z"/>
				<g>
					<path class="st29" d="M912.9,3079.6c2.4-1.7,5-3.3,7.8-5c2.7-1.6,6.3-3.1,10.6-4.4c4.3-1.3,9.8-2.4,16.3-3.2
						c6.5-0.8,14.7-1.3,24.4-1.3c9.6,0,18.5,0.3,26.9,0.9c8.4,0.7,15.8,1.6,22.2,2.9c6.4,1.3,11.6,2.9,15.6,4.8
						c4,1.9,6.3,4.1,7.1,6.6l27.9,0.3c2,0,3.8,0.2,5.3,0.5c1.6,0.3,2.3,0.7,2.3,1.2l0,2.3l-35.8-0.3c-1.3,2.8-4.5,5.4-9.6,7.7
						c-5.1,2.3-11.7,4.4-19.6,6.1l-13.1-1.8c-1.2-0.2-2.1-0.4-2.9-0.7c-0.8-0.3-1.1-0.6-1.1-0.9c0-0.4,1-0.9,3-1.5
						c2-0.6,4.3-1.3,6.8-2.1c2.5-0.8,5-1.8,7.5-3c2.4-1.1,4.1-2.5,4.9-4.1l-84.6-0.8c-2.2,1.6-4.7,3.2-7.5,4.8
						c-2.8,1.6-6.4,3-11,4.3c-4.6,1.3-10.2,2.3-17,3.1c-6.8,0.8-15.3,1.2-25.7,1.3c-7.8,0-15.3-0.3-22.7-0.9
						c-7.4-0.6-14-1.6-19.7-2.8c-5.7-1.2-10.4-2.8-14.1-4.6c-3.7-1.8-5.7-3.9-6.2-6.3l-22.9-0.2c-2,0-3.8-0.2-5.4-0.5
						c-1.6-0.3-2.4-0.7-2.4-1.2l0-2.3l31.4,0.3c1.4-2.4,4.2-4.5,8.6-6.3c4.3-1.8,9.7-3.4,15.9-4.8l10.5,1.4c3.2,0.4,4.8,1,4.8,1.6
						c0,0.3-0.6,0.7-2,1.2c-1.3,0.5-2.9,1.1-4.7,1.7c-1.8,0.7-3.5,1.5-5.2,2.4c-1.7,0.9-3,1.9-3.8,3.1L912.9,3079.6z M835.5,3082.8
						c0.6,1.5,2,2.8,4.2,3.9c2.1,1.1,4.8,2,8,2.7c3.2,0.7,6.8,1.2,10.7,1.5c4,0.3,8.2,0.5,12.5,0.5c5.1,0,9.5-0.2,13.3-0.7
						c3.8-0.4,7.1-1,9.9-1.7c2.8-0.7,5.4-1.5,7.5-2.5c2.1-0.9,4-2,5.7-3.1L835.5,3082.8z M1019.6,3080.7c-0.6-1.5-2.2-2.9-4.6-4
						c-2.4-1.1-5.5-2.1-9.2-2.9c-3.7-0.8-8-1.4-13-1.7c-4.9-0.4-10.4-0.6-16.3-0.5c-5.3,0-9.9,0.3-13.7,0.7c-3.8,0.4-7.1,1-9.9,1.8
						c-2.8,0.8-5.2,1.6-7.1,2.6c-2,1-3.8,2.1-5.5,3.2L1019.6,3080.7z"/>
				</g>
				
					<linearGradient id="SVGID_37_" gradientUnits="userSpaceOnUse" x1="728.0426" y1="1012.7383" x2="737.2322" y2="1089.6689" gradientTransform="matrix(-1 0 0 -1 1669.249 4127.8389)">
					<stop  offset="3.597120e-03" style="stop-color:#F36F56"/>
					<stop  offset="0.3059" style="stop-color:#F99C4C"/>
					<stop  offset="0.545" style="stop-color:#FDB946"/>
					<stop  offset="0.6817" style="stop-color:#FFC444"/>
					<stop  offset="0.8038" style="stop-color:#FFC244"/>
					<stop  offset="0.8667" style="stop-color:#FEBA46"/>
					<stop  offset="0.916" style="stop-color:#FCAD49"/>
					<stop  offset="0.958" style="stop-color:#F99A4D"/>
					<stop  offset="0.9955" style="stop-color:#F58152"/>
					<stop  offset="1" style="stop-color:#F57E53"/>
				</linearGradient>
				<path class="st38" d="M936.3,3049.2c-110.4,0-225.3,9.7-243.7,28.5c0.7,0.7,1.4,1.4,2,2.1c15.5-13.1,110.4-26.2,241.7-26.2
					c134.7,0,231.1,13.8,242.8,27.2c0.6-0.7,1.2-1.4,1.9-2.1C1165.8,3059.3,1048.7,3049.2,936.3,3049.2z"/>
			</g>
			<g>
				<linearGradient id="SVGID_38_" gradientUnits="userSpaceOnUse" x1="682.4593" y1="3063.689" x2="1252.0608" y2="3063.689">
					<stop  offset="0" style="stop-color:#FCB148"/>
					<stop  offset="5.207239e-02" style="stop-color:#FDBA46"/>
					<stop  offset="0.1424" style="stop-color:#FFC244"/>
					<stop  offset="0.3183" style="stop-color:#FFC444"/>
					<stop  offset="0.4849" style="stop-color:#FDB946"/>
					<stop  offset="0.7754" style="stop-color:#F99C4D"/>
					<stop  offset="0.8658" style="stop-color:#F8924F"/>
					<stop  offset="1" style="stop-color:#F8924F"/>
				</linearGradient>
				<path class="st39" d="M724.8,3020.2v54.9c0,17.7,110.8,32.1,247.6,32.1c136.7,0,247.6-14.4,247.6-32.1v-54.9H724.8z"/>
				<linearGradient id="SVGID_39_" gradientUnits="userSpaceOnUse" x1="969.8777" y1="2999.5251" x2="999.9066" y2="3250.9102">
					<stop  offset="0" style="stop-color:#FFDB44"/>
					<stop  offset="1" style="stop-color:#FEEF06"/>
				</linearGradient>
				<ellipse class="st40" cx="972.3" cy="3020.2" rx="247.6" ry="32.1"/>
				<linearGradient id="SVGID_40_" gradientUnits="userSpaceOnUse" x1="968.5717" y1="2988.3145" x2="977.794" y2="3065.519">
					<stop  offset="0" style="stop-color:#FFDB44"/>
					<stop  offset="1" style="stop-color:#FEEF06"/>
				</linearGradient>
				<path class="st41" d="M972.3,3054.5c-121.1,0-247.7-11.6-247.7-33.9c0-1.2,0.4-3.4,1.7-3.4c1.2,0,0.7,1.7,0.7,2.9
					c0,14.1,100.8,29.9,245.3,29.9c144.6,0,245.3-15.8,245.3-29.9c0-1.2,0.2-2.4,1.4-2.4s0.9,1.6,0.9,2.9
					C1220,3043,1093.4,3054.5,972.3,3054.5z"/>
				<g>
					<path class="st29" d="M949,3022c2.4-1.7,5-3.3,7.8-5c2.7-1.6,6.3-3.1,10.6-4.4c4.3-1.3,9.8-2.4,16.3-3.2
						c6.5-0.8,14.7-1.3,24.4-1.3c9.6,0,18.5,0.3,26.9,0.9c8.4,0.7,15.8,1.6,22.2,2.9c6.4,1.3,11.6,2.9,15.6,4.8
						c4,1.9,6.3,4.1,7.1,6.6l27.9,0.3c2,0,3.8,0.2,5.3,0.5c1.6,0.3,2.3,0.7,2.3,1.2l0,2.3l-35.8-0.3c-1.3,2.8-4.5,5.4-9.6,7.7
						c-5.1,2.3-11.7,4.4-19.6,6.1l-13.1-1.8c-1.2-0.2-2.1-0.4-2.9-0.7c-0.8-0.3-1.1-0.6-1.1-0.9c0-0.4,1-0.9,3-1.5
						c2-0.6,4.3-1.3,6.8-2.1c2.5-0.8,5-1.8,7.5-3c2.4-1.1,4.1-2.5,4.9-4.1l-84.6-0.8c-2.2,1.6-4.7,3.2-7.5,4.8
						c-2.8,1.6-6.4,3-11,4.3c-4.6,1.3-10.2,2.3-17,3.1c-6.8,0.8-15.3,1.2-25.7,1.3c-7.8,0-15.3-0.3-22.7-0.9
						c-7.4-0.6-14-1.6-19.7-2.8c-5.7-1.2-10.4-2.8-14.1-4.6c-3.7-1.8-5.7-3.9-6.2-6.3l-22.9-0.2c-2,0-3.8-0.2-5.4-0.5
						c-1.6-0.3-2.4-0.7-2.4-1.2l0-2.3l31.4,0.3c1.4-2.4,4.2-4.5,8.6-6.3c4.3-1.8,9.7-3.4,15.9-4.8l10.5,1.4c3.2,0.4,4.8,1,4.8,1.6
						c0,0.3-0.6,0.7-2,1.2c-1.3,0.5-2.9,1.1-4.7,1.7c-1.8,0.7-3.5,1.5-5.2,2.4c-1.7,0.9-3,1.9-3.8,3.1L949,3022z M871.5,3025.1
						c0.6,1.5,2,2.8,4.2,3.9c2.1,1.1,4.8,2,8,2.7c3.2,0.7,6.8,1.2,10.7,1.5c4,0.3,8.2,0.5,12.5,0.5c5.1,0,9.5-0.2,13.3-0.7
						c3.8-0.4,7.1-1,9.9-1.7c2.8-0.7,5.4-1.5,7.5-2.5c2.1-0.9,4-2,5.7-3.1L871.5,3025.1z M1055.7,3023c-0.6-1.5-2.2-2.9-4.6-4
						c-2.4-1.1-5.5-2.1-9.2-2.9c-3.7-0.8-8-1.4-13-1.7c-4.9-0.4-10.4-0.6-16.3-0.5c-5.3,0-9.9,0.3-13.7,0.7c-3.8,0.4-7.1,1-9.9,1.8
						c-2.8,0.8-5.2,1.6-7.1,2.6c-2,1-3.8,2.1-5.5,3.2L1055.7,3023z"/>
				</g>
				
					<linearGradient id="SVGID_41_" gradientUnits="userSpaceOnUse" x1="692.0081" y1="1070.4138" x2="701.1977" y2="1147.3445" gradientTransform="matrix(-1 0 0 -1 1669.249 4127.8389)">
					<stop  offset="3.597120e-03" style="stop-color:#F36F56"/>
					<stop  offset="0.3059" style="stop-color:#F99C4C"/>
					<stop  offset="0.545" style="stop-color:#FDB946"/>
					<stop  offset="0.6817" style="stop-color:#FFC444"/>
					<stop  offset="0.8038" style="stop-color:#FFC244"/>
					<stop  offset="0.8667" style="stop-color:#FEBA46"/>
					<stop  offset="0.916" style="stop-color:#FCAD49"/>
					<stop  offset="0.958" style="stop-color:#F99A4D"/>
					<stop  offset="0.9955" style="stop-color:#F58152"/>
					<stop  offset="1" style="stop-color:#F57E53"/>
				</linearGradient>
				<path class="st42" d="M972.4,2991.5c-110.4,0-225.3,9.7-243.7,28.5c0.7,0.7,1.4,1.4,2,2.1c15.5-13.1,110.4-26.2,241.7-26.2
					c134.7,0,231.1,13.8,242.8,27.2c0.6-0.7,1.2-1.4,1.9-2.1C1201.8,3001.6,1084.7,2991.5,972.4,2991.5z"/>
			</g>
			<g>
				<linearGradient id="SVGID_42_" gradientUnits="userSpaceOnUse" x1="655.8616" y1="3001.4629" x2="1225.4637" y2="3001.4629">
					<stop  offset="0" style="stop-color:#FCB148"/>
					<stop  offset="5.207239e-02" style="stop-color:#FDBA46"/>
					<stop  offset="0.1424" style="stop-color:#FFC244"/>
					<stop  offset="0.3183" style="stop-color:#FFC444"/>
					<stop  offset="0.4849" style="stop-color:#FDB946"/>
					<stop  offset="0.7754" style="stop-color:#F99C4D"/>
					<stop  offset="0.8658" style="stop-color:#F8924F"/>
					<stop  offset="1" style="stop-color:#F8924F"/>
				</linearGradient>
				<path class="st43" d="M698.2,2957.9v54.9c0,17.7,110.8,32.1,247.6,32.1s247.6-14.4,247.6-32.1v-54.9H698.2z"/>
				<linearGradient id="SVGID_43_" gradientUnits="userSpaceOnUse" x1="943.2804" y1="2937.2998" x2="973.3091" y2="3188.6846">
					<stop  offset="0" style="stop-color:#FFDB44"/>
					<stop  offset="1" style="stop-color:#FEEF06"/>
				</linearGradient>
				<path class="st44" d="M1193.3,2957.9c0,17.7-110.8,32.1-247.6,32.1s-247.6-14.4-247.6-32.1c0-17.7,110.8-32.1,247.6-32.1
					S1193.3,2940.2,1193.3,2957.9z"/>
				<linearGradient id="SVGID_44_" gradientUnits="userSpaceOnUse" x1="941.9746" y1="2926.0886" x2="951.197" y2="3003.2932">
					<stop  offset="0" style="stop-color:#FFDB44"/>
					<stop  offset="1" style="stop-color:#FEEF06"/>
				</linearGradient>
				<path class="st45" d="M945.7,2992.3c-121.1,0-247.7-11.6-247.7-33.9c0-1.2,0.4-3.4,1.7-3.4c1.2,0,0.7,1.7,0.7,2.9
					c0,14.1,100.8,29.9,245.3,29.9c144.6,0,245.3-15.8,245.3-29.9c0-1.2,0.2-2.4,1.4-2.4s0.9,1.6,0.9,2.9
					C1193.5,2980.7,1066.8,2992.3,945.7,2992.3z"/>
				<g>
					<path class="st29" d="M922.4,2959.7c2.4-1.7,5-3.3,7.8-5c2.7-1.6,6.3-3.1,10.6-4.4c4.3-1.3,9.8-2.4,16.3-3.2
						c6.5-0.8,14.7-1.3,24.4-1.3c9.6,0,18.5,0.3,26.9,0.9c8.4,0.7,15.8,1.6,22.2,2.9c6.4,1.3,11.6,2.9,15.6,4.8
						c4,1.9,6.3,4.1,7.1,6.6l27.9,0.3c2,0,3.8,0.2,5.3,0.5c1.6,0.3,2.3,0.7,2.3,1.2l0,2.3l-35.8-0.3c-1.3,2.8-4.5,5.4-9.6,7.7
						c-5.1,2.3-11.7,4.4-19.6,6.1l-13.1-1.8c-1.2-0.2-2.1-0.4-2.9-0.7c-0.8-0.3-1.1-0.6-1.1-0.9c0-0.4,1-0.9,3-1.5
						c2-0.6,4.3-1.3,6.8-2.1c2.5-0.8,5-1.8,7.5-3c2.4-1.1,4.1-2.5,4.9-4.1l-84.6-0.8c-2.2,1.6-4.7,3.2-7.5,4.8
						c-2.8,1.6-6.4,3-11,4.3c-4.6,1.3-10.2,2.3-17,3.1c-6.8,0.8-15.3,1.2-25.7,1.3c-7.8,0-15.3-0.3-22.7-0.9
						c-7.4-0.6-14-1.6-19.7-2.8c-5.7-1.2-10.4-2.8-14.1-4.6c-3.7-1.8-5.7-3.9-6.2-6.3l-22.9-0.2c-2,0-3.8-0.2-5.4-0.5
						c-1.6-0.3-2.4-0.7-2.4-1.2l0-2.3l31.4,0.3c1.4-2.4,4.2-4.5,8.6-6.3c4.3-1.8,9.7-3.4,15.9-4.8l10.5,1.4c3.2,0.4,4.8,1,4.8,1.6
						c0,0.3-0.6,0.7-2,1.2c-1.3,0.5-2.9,1.1-4.7,1.7c-1.8,0.7-3.5,1.5-5.2,2.4c-1.7,0.9-3,1.9-3.8,3.1L922.4,2959.7z M844.9,2962.9
						c0.6,1.5,2,2.8,4.2,3.9c2.1,1.1,4.8,2,8,2.7c3.2,0.7,6.8,1.2,10.7,1.5c4,0.3,8.2,0.5,12.5,0.5c5.1,0,9.5-0.2,13.3-0.7
						c3.8-0.4,7.1-1,9.9-1.7c2.8-0.7,5.4-1.5,7.5-2.5c2.1-0.9,4-2,5.7-3.1L844.9,2962.9z M1029.1,2960.8c-0.6-1.5-2.2-2.9-4.6-4
						c-2.4-1.1-5.5-2.1-9.2-2.9c-3.7-0.8-8-1.4-13-1.7c-4.9-0.4-10.4-0.6-16.3-0.5c-5.3,0-9.9,0.3-13.7,0.7c-3.8,0.4-7.1,1-9.9,1.8
						c-2.8,0.8-5.2,1.6-7.1,2.6c-2,1-3.8,2.1-5.5,3.2L1029.1,2960.8z"/>
				</g>
				
					<linearGradient id="SVGID_45_" gradientUnits="userSpaceOnUse" x1="718.6048" y1="1132.6398" x2="727.7944" y2="1209.5702" gradientTransform="matrix(-1 0 0 -1 1669.249 4127.8389)">
					<stop  offset="3.597120e-03" style="stop-color:#F36F56"/>
					<stop  offset="0.3059" style="stop-color:#F99C4C"/>
					<stop  offset="0.545" style="stop-color:#FDB946"/>
					<stop  offset="0.6817" style="stop-color:#FFC444"/>
					<stop  offset="0.8038" style="stop-color:#FFC244"/>
					<stop  offset="0.8667" style="stop-color:#FEBA46"/>
					<stop  offset="0.916" style="stop-color:#FCAD49"/>
					<stop  offset="0.958" style="stop-color:#F99A4D"/>
					<stop  offset="0.9955" style="stop-color:#F58152"/>
					<stop  offset="1" style="stop-color:#F57E53"/>
				</linearGradient>
				<path class="st46" d="M945.8,2929.3c-110.4,0-225.3,9.7-243.7,28.5c0.7,0.7,1.4,1.4,2,2.1c15.5-13.1,110.4-26.2,241.7-26.2
					c134.7,0,231.1,13.8,242.8,27.2c0.6-0.7,1.2-1.4,1.9-2.1C1175.2,2939.4,1058.1,2929.3,945.8,2929.3z"/>
			</g>
			<g>
				<linearGradient id="SVGID_46_" gradientUnits="userSpaceOnUse" x1="587.0421" y1="2943.7869" x2="1156.6436" y2="2943.7869">
					<stop  offset="0" style="stop-color:#FCB148"/>
					<stop  offset="5.207239e-02" style="stop-color:#FDBA46"/>
					<stop  offset="0.1424" style="stop-color:#FFC244"/>
					<stop  offset="0.3183" style="stop-color:#FFC444"/>
					<stop  offset="0.4849" style="stop-color:#FDB946"/>
					<stop  offset="0.7754" style="stop-color:#F99C4D"/>
					<stop  offset="0.8658" style="stop-color:#F8924F"/>
					<stop  offset="1" style="stop-color:#F8924F"/>
				</linearGradient>
				<path class="st47" d="M629.4,2900.3v54.9c0,17.7,110.8,32.1,247.6,32.1c136.7,0,247.6-14.4,247.6-32.1v-54.9H629.4z"/>
				<linearGradient id="SVGID_47_" gradientUnits="userSpaceOnUse" x1="874.4605" y1="2879.6238" x2="904.4894" y2="3131.0093">
					<stop  offset="0" style="stop-color:#FFDB44"/>
					<stop  offset="1" style="stop-color:#FEEF06"/>
				</linearGradient>
				<ellipse class="st48" cx="876.9" cy="2900.3" rx="247.6" ry="32.1"/>
				<linearGradient id="SVGID_48_" gradientUnits="userSpaceOnUse" x1="873.155" y1="2868.4128" x2="882.3773" y2="2945.6174">
					<stop  offset="0" style="stop-color:#FFDB44"/>
					<stop  offset="1" style="stop-color:#FEEF06"/>
				</linearGradient>
				<path class="st49" d="M876.9,2934.6c-121.1,0-247.7-11.6-247.7-33.9c0-1.2,0.4-3.4,1.7-3.4c1.2,0,0.7,1.7,0.7,2.9
					c0,14.1,100.8,29.9,245.3,29.9s245.3-15.8,245.3-29.9c0-1.2,0.2-2.4,1.4-2.4c1.2,0,0.9,1.6,0.9,2.9
					C1124.6,2923.1,998,2934.6,876.9,2934.6z"/>
				<g>
					<path class="st29" d="M853.5,2902.1c2.4-1.7,5-3.3,7.8-5c2.7-1.6,6.3-3.1,10.6-4.4c4.3-1.3,9.8-2.4,16.3-3.2
						c6.5-0.8,14.7-1.3,24.4-1.3c9.6,0,18.5,0.3,26.9,0.9c8.4,0.7,15.8,1.6,22.2,2.9c6.4,1.3,11.6,2.9,15.6,4.8
						c4,1.9,6.3,4.1,7.1,6.6l27.9,0.3c2,0,3.8,0.2,5.3,0.5c1.6,0.3,2.3,0.7,2.3,1.2l0,2.3l-35.8-0.3c-1.3,2.8-4.5,5.4-9.6,7.7
						c-5.1,2.3-11.7,4.4-19.6,6.1l-13.1-1.8c-1.2-0.2-2.1-0.4-2.9-0.7c-0.8-0.3-1.1-0.6-1.1-0.9c0-0.4,1-0.9,3-1.5
						c2-0.6,4.3-1.3,6.8-2.1c2.5-0.8,5-1.8,7.5-3c2.4-1.1,4.1-2.5,4.9-4.1l-84.6-0.8c-2.2,1.6-4.7,3.2-7.5,4.8
						c-2.8,1.6-6.4,3-11,4.3c-4.6,1.3-10.2,2.3-17,3.1c-6.8,0.8-15.3,1.2-25.7,1.3c-7.8,0-15.3-0.3-22.7-0.9
						c-7.4-0.6-14-1.6-19.7-2.8c-5.7-1.2-10.4-2.8-14.1-4.6c-3.7-1.8-5.7-3.9-6.2-6.3l-22.9-0.2c-2,0-3.8-0.2-5.4-0.5
						c-1.6-0.3-2.4-0.7-2.4-1.2l0-2.3l31.4,0.3c1.4-2.4,4.2-4.5,8.6-6.3c4.3-1.8,9.7-3.4,15.9-4.8l10.5,1.4c3.2,0.4,4.8,1,4.8,1.6
						c0,0.3-0.6,0.7-2,1.2c-1.3,0.5-2.9,1.1-4.7,1.7c-1.8,0.7-3.5,1.5-5.2,2.4c-1.7,0.9-3,1.9-3.8,3.1L853.5,2902.1z M776.1,2905.2
						c0.6,1.5,2,2.8,4.2,3.9c2.1,1.1,4.8,2,8,2.7c3.2,0.7,6.8,1.2,10.7,1.5c4,0.3,8.2,0.5,12.5,0.5c5.1,0,9.5-0.2,13.3-0.7
						c3.8-0.4,7.1-1,9.9-1.7c2.8-0.7,5.4-1.5,7.5-2.5c2.1-0.9,4-2,5.7-3.1L776.1,2905.2z M960.3,2903.1c-0.6-1.5-2.2-2.9-4.6-4
						c-2.4-1.1-5.5-2.1-9.2-2.9c-3.7-0.8-8-1.4-13-1.7c-4.9-0.4-10.4-0.6-16.3-0.5c-5.3,0-9.9,0.3-13.7,0.7c-3.8,0.4-7.1,1-9.9,1.8
						c-2.8,0.8-5.2,1.6-7.1,2.6c-2,1-3.8,2.1-5.5,3.2L960.3,2903.1z"/>
				</g>
				
					<linearGradient id="SVGID_49_" gradientUnits="userSpaceOnUse" x1="787.4249" y1="1190.3158" x2="796.6145" y2="1267.2462" gradientTransform="matrix(-1 0 0 -1 1669.249 4127.8389)">
					<stop  offset="3.597120e-03" style="stop-color:#F36F56"/>
					<stop  offset="0.3059" style="stop-color:#F99C4C"/>
					<stop  offset="0.545" style="stop-color:#FDB946"/>
					<stop  offset="0.6817" style="stop-color:#FFC444"/>
					<stop  offset="0.8038" style="stop-color:#FFC244"/>
					<stop  offset="0.8667" style="stop-color:#FEBA46"/>
					<stop  offset="0.916" style="stop-color:#FCAD49"/>
					<stop  offset="0.958" style="stop-color:#F99A4D"/>
					<stop  offset="0.9955" style="stop-color:#F58152"/>
					<stop  offset="1" style="stop-color:#F57E53"/>
				</linearGradient>
				<path class="st50" d="M877,2871.6c-110.4,0-225.3,9.7-243.7,28.5c0.7,0.7,1.4,1.4,2,2.1c15.5-13.1,110.4-26.2,241.7-26.2
					c134.7,0,231.1,13.8,242.8,27.2c0.6-0.7,1.2-1.4,1.9-2.1C1106.4,2881.7,989.3,2871.6,877,2871.6z"/>
			</g>
			<g>
				<linearGradient id="SVGID_50_" gradientUnits="userSpaceOnUse" x1="646.4239" y1="2886.2805" x2="1216.0259" y2="2886.2805">
					<stop  offset="0" style="stop-color:#FCB148"/>
					<stop  offset="5.207239e-02" style="stop-color:#FDBA46"/>
					<stop  offset="0.1424" style="stop-color:#FFC244"/>
					<stop  offset="0.3183" style="stop-color:#FFC444"/>
					<stop  offset="0.4849" style="stop-color:#FDB946"/>
					<stop  offset="0.7754" style="stop-color:#F99C4D"/>
					<stop  offset="0.8658" style="stop-color:#F8924F"/>
					<stop  offset="1" style="stop-color:#F8924F"/>
				</linearGradient>
				<path class="st51" d="M688.8,2842.8v54.9c0,17.7,110.8,32.1,247.6,32.1c136.7,0,247.6-14.4,247.6-32.1v-54.9H688.8z"/>
				<linearGradient id="SVGID_51_" gradientUnits="userSpaceOnUse" x1="933.8426" y1="2822.1167" x2="963.8715" y2="3073.5024">
					<stop  offset="0" style="stop-color:#FFDB44"/>
					<stop  offset="1" style="stop-color:#FEEF06"/>
				</linearGradient>
				<ellipse class="st52" cx="936.3" cy="2842.8" rx="247.6" ry="32.1"/>
				<linearGradient id="SVGID_52_" gradientUnits="userSpaceOnUse" x1="932.5372" y1="2810.906" x2="941.7596" y2="2888.1106">
					<stop  offset="0" style="stop-color:#FFDB44"/>
					<stop  offset="1" style="stop-color:#FEEF06"/>
				</linearGradient>
				<path class="st53" d="M936.3,2877.1c-121.1,0-247.7-11.6-247.7-33.9c0-1.2,0.4-3.4,1.7-3.4c1.2,0,0.7,1.7,0.7,2.9
					c0,14.1,100.8,29.9,245.3,29.9s245.3-15.8,245.3-29.9c0-1.2,0.2-2.4,1.4-2.4c1.2,0,0.9,1.6,0.9,2.9
					C1184,2865.6,1057.4,2877.1,936.3,2877.1z"/>
				<g>
					<path class="st29" d="M912.9,2844.6c2.4-1.7,5-3.3,7.8-5c2.7-1.6,6.3-3.1,10.6-4.4c4.3-1.3,9.8-2.4,16.3-3.2
						c6.5-0.8,14.7-1.3,24.4-1.3c9.6,0,18.5,0.3,26.9,0.9c8.4,0.7,15.8,1.6,22.2,2.9c6.4,1.3,11.6,2.9,15.6,4.8
						c4,1.9,6.3,4.1,7.1,6.6l27.9,0.3c2,0,3.8,0.2,5.3,0.5c1.6,0.3,2.3,0.7,2.3,1.2l0,2.3l-35.8-0.3c-1.3,2.8-4.5,5.4-9.6,7.7
						c-5.1,2.3-11.7,4.4-19.6,6.1l-13.1-1.8c-1.2-0.2-2.1-0.4-2.9-0.7c-0.8-0.3-1.1-0.6-1.1-0.9c0-0.4,1-0.9,3-1.5
						c2-0.6,4.3-1.3,6.8-2.1c2.5-0.8,5-1.8,7.5-3c2.4-1.1,4.1-2.5,4.9-4.1l-84.6-0.8c-2.2,1.6-4.7,3.2-7.5,4.8
						c-2.8,1.6-6.4,3-11,4.3c-4.6,1.3-10.2,2.3-17,3.1c-6.8,0.8-15.3,1.2-25.7,1.3c-7.8,0-15.3-0.3-22.7-0.9
						c-7.4-0.6-14-1.6-19.7-2.8c-5.7-1.2-10.4-2.8-14.1-4.6c-3.7-1.8-5.7-3.9-6.2-6.3l-22.9-0.2c-2,0-3.8-0.2-5.4-0.5
						c-1.6-0.3-2.4-0.7-2.4-1.2l0-2.3l31.4,0.3c1.4-2.4,4.2-4.5,8.6-6.3c4.3-1.8,9.7-3.4,15.9-4.8l10.5,1.4c3.2,0.4,4.8,1,4.8,1.6
						c0,0.3-0.6,0.7-2,1.2c-1.3,0.5-2.9,1.1-4.7,1.7c-1.8,0.7-3.5,1.5-5.2,2.4c-1.7,0.9-3,1.9-3.8,3.1L912.9,2844.6z M835.5,2847.7
						c0.6,1.5,2,2.8,4.2,3.9c2.1,1.1,4.8,2,8,2.7c3.2,0.7,6.8,1.2,10.7,1.5c4,0.3,8.2,0.5,12.5,0.5c5.1,0,9.5-0.2,13.3-0.7
						c3.8-0.4,7.1-1,9.9-1.7c2.8-0.7,5.4-1.5,7.5-2.5c2.1-0.9,4-2,5.7-3.1L835.5,2847.7z M1019.6,2845.6c-0.6-1.5-2.2-2.9-4.6-4
						c-2.4-1.1-5.5-2.1-9.2-2.9c-3.7-0.8-8-1.4-13-1.7c-4.9-0.4-10.4-0.6-16.3-0.5c-5.3,0-9.9,0.3-13.7,0.7c-3.8,0.4-7.1,1-9.9,1.8
						c-2.8,0.8-5.2,1.6-7.1,2.6c-2,1-3.8,2.1-5.5,3.2L1019.6,2845.6z"/>
				</g>
				
					<linearGradient id="SVGID_53_" gradientUnits="userSpaceOnUse" x1="728.0427" y1="1247.8228" x2="737.2322" y2="1324.7532" gradientTransform="matrix(-1 0 0 -1 1669.249 4127.8389)">
					<stop  offset="3.597120e-03" style="stop-color:#F36F56"/>
					<stop  offset="0.3059" style="stop-color:#F99C4C"/>
					<stop  offset="0.545" style="stop-color:#FDB946"/>
					<stop  offset="0.6817" style="stop-color:#FFC444"/>
					<stop  offset="0.8038" style="stop-color:#FFC244"/>
					<stop  offset="0.8667" style="stop-color:#FEBA46"/>
					<stop  offset="0.916" style="stop-color:#FCAD49"/>
					<stop  offset="0.958" style="stop-color:#F99A4D"/>
					<stop  offset="0.9955" style="stop-color:#F58152"/>
					<stop  offset="1" style="stop-color:#F57E53"/>
				</linearGradient>
				<path class="st54" d="M936.3,2814.1c-110.4,0-225.3,9.7-243.7,28.5c0.7,0.7,1.4,1.4,2,2.1c15.5-13.1,110.4-26.2,241.7-26.2
					c134.7,0,231.1,13.8,242.8,27.2c0.6-0.7,1.2-1.4,1.9-2.1C1165.8,2824.2,1048.7,2814.1,936.3,2814.1z"/>
			</g>
			<g>
				<linearGradient id="SVGID_54_" gradientUnits="userSpaceOnUse" x1="615.5373" y1="2828.6047" x2="1185.1388" y2="2828.6047">
					<stop  offset="0" style="stop-color:#FCB148"/>
					<stop  offset="5.207239e-02" style="stop-color:#FDBA46"/>
					<stop  offset="0.1424" style="stop-color:#FFC244"/>
					<stop  offset="0.3183" style="stop-color:#FFC444"/>
					<stop  offset="0.4849" style="stop-color:#FDB946"/>
					<stop  offset="0.7754" style="stop-color:#F99C4D"/>
					<stop  offset="0.8658" style="stop-color:#F8924F"/>
					<stop  offset="1" style="stop-color:#F8924F"/>
				</linearGradient>
				<path class="st55" d="M657.9,2785.1v54.9c0,17.7,110.8,32.1,247.6,32.1c136.7,0,247.6-14.4,247.6-32.1v-54.9H657.9z"/>
				<linearGradient id="SVGID_55_" gradientUnits="userSpaceOnUse" x1="902.9557" y1="2764.4414" x2="932.9847" y2="3015.8274">
					<stop  offset="0" style="stop-color:#FFDB44"/>
					<stop  offset="1" style="stop-color:#FEEF06"/>
				</linearGradient>
				<ellipse class="st56" cx="905.4" cy="2785.1" rx="247.6" ry="32.1"/>
				<linearGradient id="SVGID_56_" gradientUnits="userSpaceOnUse" x1="901.6501" y1="2753.2305" x2="910.8724" y2="2830.4346">
					<stop  offset="0" style="stop-color:#FFDB44"/>
					<stop  offset="1" style="stop-color:#FEEF06"/>
				</linearGradient>
				<path class="st57" d="M905.4,2819.4c-121.1,0-247.7-11.6-247.7-33.9c0-1.2,0.4-3.4,1.7-3.4c1.2,0,0.7,1.7,0.7,2.9
					c0,14.1,100.8,29.9,245.3,29.9c144.6,0,245.3-15.8,245.3-29.9c0-1.2,0.2-2.4,1.4-2.4c1.2,0,0.9,1.6,0.9,2.9
					C1153.1,2807.9,1026.5,2819.4,905.4,2819.4z"/>
				<g>
					<path class="st29" d="M882,2786.9c2.4-1.7,5-3.3,7.8-5c2.7-1.6,6.3-3.1,10.6-4.4c4.3-1.3,9.8-2.4,16.3-3.2
						c6.5-0.8,14.7-1.3,24.4-1.3c9.6,0,18.5,0.3,26.9,0.9c8.4,0.7,15.8,1.6,22.2,2.9c6.4,1.3,11.6,2.9,15.6,4.8
						c4,1.9,6.3,4.1,7.1,6.6l27.9,0.3c2,0,3.8,0.2,5.3,0.5c1.6,0.3,2.3,0.7,2.3,1.2l0,2.3l-35.8-0.3c-1.3,2.8-4.5,5.4-9.6,7.7
						c-5.1,2.3-11.7,4.4-19.6,6.1l-13.1-1.8c-1.2-0.2-2.1-0.4-2.9-0.7c-0.8-0.3-1.1-0.6-1.1-0.9c0-0.4,1-0.9,3-1.5
						c2-0.6,4.3-1.3,6.8-2.1c2.5-0.8,5-1.8,7.5-3c2.4-1.1,4.1-2.5,4.9-4.1L904,2791c-2.2,1.6-4.7,3.2-7.5,4.8c-2.8,1.6-6.4,3-11,4.3
						c-4.6,1.3-10.2,2.3-17,3.1c-6.8,0.8-15.3,1.2-25.7,1.3c-7.8,0-15.3-0.3-22.7-0.9c-7.4-0.6-14-1.6-19.7-2.8
						c-5.7-1.2-10.4-2.8-14.1-4.6c-3.7-1.8-5.7-3.9-6.2-6.3l-22.9-0.2c-2,0-3.8-0.2-5.4-0.5c-1.6-0.3-2.4-0.7-2.4-1.2l0-2.3
						l31.4,0.3c1.4-2.4,4.2-4.5,8.6-6.3c4.3-1.8,9.7-3.4,15.9-4.8l10.5,1.4c3.2,0.4,4.8,1,4.8,1.6c0,0.3-0.6,0.7-2,1.2
						c-1.3,0.5-2.9,1.1-4.7,1.7c-1.8,0.7-3.5,1.5-5.2,2.4c-1.7,0.9-3,1.9-3.8,3.1L882,2786.9z M804.6,2790c0.6,1.5,2,2.8,4.2,3.9
						c2.1,1.1,4.8,2,8,2.7c3.2,0.7,6.8,1.2,10.7,1.5c4,0.3,8.2,0.5,12.5,0.5c5.1,0,9.5-0.2,13.3-0.7c3.8-0.4,7.1-1,9.9-1.7
						c2.8-0.7,5.4-1.5,7.5-2.5c2.1-0.9,4-2,5.7-3.1L804.6,2790z M988.8,2788c-0.6-1.5-2.2-2.9-4.6-4c-2.4-1.1-5.5-2.1-9.2-2.9
						c-3.7-0.8-8-1.4-13-1.7c-4.9-0.4-10.4-0.6-16.3-0.5c-5.3,0-9.9,0.3-13.7,0.7c-3.8,0.4-7.1,1-9.9,1.8c-2.8,0.8-5.2,1.6-7.1,2.6
						c-2,1-3.8,2.1-5.5,3.2L988.8,2788z"/>
				</g>
				
					<linearGradient id="SVGID_57_" gradientUnits="userSpaceOnUse" x1="758.9296" y1="1305.4983" x2="768.1191" y2="1382.4287" gradientTransform="matrix(-1 0 0 -1 1669.249 4127.8389)">
					<stop  offset="3.597120e-03" style="stop-color:#F36F56"/>
					<stop  offset="0.3059" style="stop-color:#F99C4C"/>
					<stop  offset="0.545" style="stop-color:#FDB946"/>
					<stop  offset="0.6817" style="stop-color:#FFC444"/>
					<stop  offset="0.8038" style="stop-color:#FFC244"/>
					<stop  offset="0.8667" style="stop-color:#FEBA46"/>
					<stop  offset="0.916" style="stop-color:#FCAD49"/>
					<stop  offset="0.958" style="stop-color:#F99A4D"/>
					<stop  offset="0.9955" style="stop-color:#F58152"/>
					<stop  offset="1" style="stop-color:#F57E53"/>
				</linearGradient>
				<path class="st58" d="M905.5,2756.4c-110.4,0-225.3,9.7-243.7,28.5c0.7,0.7,1.4,1.4,2,2.1c15.5-13.1,110.4-26.2,241.7-26.2
					c134.7,0,231.1,13.8,242.8,27.2c0.6-0.7,1.2-1.4,1.9-2.1C1134.9,2766.5,1017.8,2756.4,905.5,2756.4z"/>
			</g>
			<g>
				
					<linearGradient id="SVGID_58_" gradientUnits="userSpaceOnUse" x1="1872.1219" y1="2621.2366" x2="2441.7263" y2="2621.2366" gradientTransform="matrix(0.5796 0.8149 -0.8149 0.5796 2214.3765 -230.3409)">
					<stop  offset="0" style="stop-color:#FCB148"/>
					<stop  offset="5.207239e-02" style="stop-color:#FDBA46"/>
					<stop  offset="0.1424" style="stop-color:#FFC244"/>
					<stop  offset="0.3183" style="stop-color:#FFC444"/>
					<stop  offset="0.4849" style="stop-color:#FDB946"/>
					<stop  offset="0.7754" style="stop-color:#F99C4D"/>
					<stop  offset="0.8658" style="stop-color:#F8924F"/>
					<stop  offset="1" style="stop-color:#F8924F"/>
				</linearGradient>
				<path class="st59" d="M1223.4,2823.8l-44.7,31.8c-14.5,10.3,38.1,108.9,117.3,220.4c79.2,111.4,155.2,193.4,169.7,183.1
					l44.7-31.8L1223.4,2823.8z"/>
				
					<linearGradient id="SVGID_59_" gradientUnits="userSpaceOnUse" x1="2159.5413" y1="2557.0796" x2="2189.5664" y2="2808.4346" gradientTransform="matrix(0.5796 0.8149 -0.8149 0.5796 2214.3765 -230.3409)">
					<stop  offset="0" style="stop-color:#FFDB44"/>
					<stop  offset="1" style="stop-color:#FEEF06"/>
				</linearGradient>
				<path class="st60" d="M1510.4,3227.3c-14.5,10.3-90.4-71.7-169.7-183.1c-79.2-111.4-131.8-210.1-117.3-220.4
					c14.5-10.3,90.4,71.7,169.7,183.1C1472.3,3118.3,1524.8,3217,1510.4,3227.3z"/>
				
					<linearGradient id="SVGID_60_" gradientUnits="userSpaceOnUse" x1="2158.2358" y1="2545.8743" x2="2167.4565" y2="2623.0657" gradientTransform="matrix(0.5796 0.8149 -0.8149 0.5796 2214.3765 -230.3409)">
					<stop  offset="0" style="stop-color:#FFDB44"/>
					<stop  offset="1" style="stop-color:#FEEF06"/>
				</linearGradient>
				<path class="st61" d="M1338.9,3045.4c-70.2-98.7-134.2-208.6-116-221.5c1-0.7,3-1.6,3.7-0.6c0.7,1-1,1.5-2,2.3
					c-11.5,8.2,34,99.4,117.8,217.3s155.1,190.8,166.6,182.6c1-0.7,2.1-1.2,2.8-0.2c0.7,1-0.8,1.7-1.8,2.4
					C1491.9,3240.6,1409.1,3144.1,1338.9,3045.4z"/>
				<g>
					<path class="st29" d="M1351.9,3007.5c2.8,1,5.6,2.2,8.6,3.5c2.9,1.3,6.2,3.3,9.8,6.1c3.6,2.8,7.6,6.6,12.1,11.4
						c4.5,4.8,9.6,11.2,15.2,19.2c5.6,7.8,10.5,15.3,14.9,22.5c4.3,7.2,7.8,13.8,10.5,19.8c2.6,5.9,4.3,11.1,5.1,15.5
						c0.7,4.4,0.3,7.6-1.2,9.6l15.9,22.9c1.2,1.7,2.1,3.2,2.7,4.6c0.6,1.5,0.8,2.3,0.4,2.6l-1.9,1.3l-20.5-29.4
						c-3,0.6-7-0.5-11.9-3.4c-4.9-2.8-10.3-7-16.3-12.5l-6.1-11.7c-0.5-1.1-0.9-2-1.1-2.7c-0.2-0.8-0.2-1.2,0.1-1.4
						c0.4-0.3,1.4,0.3,3,1.6c1.6,1.3,3.5,2.8,5.7,4.3c2.1,1.6,4.4,3,6.7,4.4c2.3,1.3,4.4,1.9,6.2,1.6l-48.3-69.4
						c-2.6-0.9-5.4-2-8.3-3.3c-2.9-1.3-6.2-3.5-9.8-6.5c-3.7-3-7.8-7-12.4-12.1c-4.6-5.1-9.9-11.8-15.9-20.2
						c-4.5-6.3-8.7-12.6-12.4-19c-3.8-6.4-6.8-12.3-9.1-17.7c-2.3-5.4-3.8-10.1-4.4-14.2c-0.6-4.1-0.1-7,1.6-8.7l-13.1-18.8
						c-1.2-1.7-2.1-3.2-2.8-4.7c-0.7-1.5-0.8-2.4-0.4-2.7l1.9-1.3l17.9,25.7c2.8-0.3,6.1,0.8,10.1,3.3c4,2.5,8.4,5.9,13.1,10.2
						l4.9,9.4c1.5,2.9,2,4.5,1.5,4.8c-0.3,0.2-1-0.1-2.1-0.9c-1.2-0.8-2.5-1.7-4.1-2.8c-1.6-1.1-3.2-2-5-2.9
						c-1.7-0.9-3.3-1.3-4.7-1.3L1351.9,3007.5z M1304.5,2946.2c-0.9,1.4-1.1,3.3-0.8,5.7c0.3,2.4,1.2,5,2.4,8.1c1.3,3,2.9,6.2,5,9.6
						c2,3.4,4.3,6.9,6.9,10.5c3,4.1,5.7,7.6,8.2,10.5c2.5,2.8,4.9,5.2,7.1,7.1c2.2,1.9,4.4,3.5,6.3,4.7c2,1.2,3.9,2.1,5.8,2.9
						L1304.5,2946.2z M1412.9,3095.1c0.9-1.4,1.1-3.4,0.6-6c-0.5-2.6-1.4-5.7-3-9.1c-1.5-3.5-3.6-7.3-6.1-11.6
						c-2.5-4.2-5.6-8.8-9-13.6c-3.1-4.3-5.9-7.9-8.5-10.7c-2.6-2.8-5-5.2-7.2-7.1c-2.2-1.8-4.3-3.3-6.3-4.3c-2-1-3.9-1.9-5.8-2.6
						L1412.9,3095.1z"/>
				</g>
				
					<linearGradient id="SVGID_61_" gradientUnits="userSpaceOnUse" x1="-497.0879" y1="1512.4138" x2="-487.9" y2="1589.3301" gradientTransform="matrix(-0.5796 -0.8149 0.8149 -0.5796 -181.2018 3522.6223)">
					<stop  offset="3.597120e-03" style="stop-color:#F36F56"/>
					<stop  offset="0.3059" style="stop-color:#F99C4C"/>
					<stop  offset="0.545" style="stop-color:#FDB946"/>
					<stop  offset="0.6817" style="stop-color:#FFC444"/>
					<stop  offset="0.8038" style="stop-color:#FFC244"/>
					<stop  offset="0.8667" style="stop-color:#FEBA46"/>
					<stop  offset="0.916" style="stop-color:#FCAD49"/>
					<stop  offset="0.958" style="stop-color:#F99A4D"/>
					<stop  offset="0.9955" style="stop-color:#F58152"/>
					<stop  offset="1" style="stop-color:#F57E53"/>
				</linearGradient>
				<path class="st62" d="M1390.3,3008.9c-64-89.9-138.5-178-164.5-182.1c-0.1,1-0.3,1.9-0.6,2.9c19.6,5.1,85.3,74.8,161.4,181.8
					c78.1,109.7,122.7,196.3,118.5,213.6c0.9,0,1.9,0.1,2.8,0.3C1515,3201.7,1455.4,3100.5,1390.3,3008.9z"/>
			</g>
		</g>
		<g>
			<linearGradient id="SVGID_62_" gradientUnits="userSpaceOnUse" x1="2239.2925" y1="2439.604" x2="2465.4597" y2="2781.4246">
				<stop  offset="0" style="stop-color:#AA80F9"/>
				<stop  offset="0.9964" style="stop-color:#6165D7"/>
			</linearGradient>
			<path class="st63" d="M2671,3117.3l-22.4,1.8c-5.8,0.5-11.6,0.2-17.4-0.7l-88.9-14.5l-1.5-0.2l-103.2-16.9l-0.6,0l-80.9-13.1
				v-455.2l81.4,0h0.2l103.2,5.1l1.5,0.8l124.9,4.8L2671,3117.3z"/>
			<linearGradient id="SVGID_63_" gradientUnits="userSpaceOnUse" x1="2943.2222" y1="2643.1892" x2="2612.2627" y2="3202.1428">
				<stop  offset="0" style="stop-color:#AA80F9"/>
				<stop  offset="0.9964" style="stop-color:#6165D7"/>
			</linearGradient>
			<path class="st64" d="M2985.2,2647.3v424.9c0,15.2-11.7,27.6-26.8,28.5l-296.3,17.6c-12,0.7-22.2-9.2-22.2-21.6v-442.7
				c0-12.4,9.7-22.6,21.7-23l298.5-8.3C2973.9,2622.5,2985.2,2633.5,2985.2,2647.3z"/>
			<linearGradient id="SVGID_64_" gradientUnits="userSpaceOnUse" x1="2701.9453" y1="2467.1155" x2="2649.5139" y2="2651.8733">
				<stop  offset="3.597120e-03" style="stop-color:#E38DDD"/>
				<stop  offset="1" style="stop-color:#9571F6"/>
			</linearGradient>
			<polygon class="st65" points="2356.7,2618.4 2639.8,2631.8 2960,2622.9 2631.8,2612.2 			"/>
			<linearGradient id="SVGID_65_" gradientUnits="userSpaceOnUse" x1="2966.416" y1="2657.4209" x2="2632.4951" y2="3221.3762">
				<stop  offset="3.597120e-03" style="stop-color:#E38DDD"/>
				<stop  offset="1" style="stop-color:#9571F6"/>
			</linearGradient>
			<path class="st66" d="M2959.6,2622.9l-233.7,6.5c-13.3,0.4-24.2,11.6-24.1,25.2c0,22.7,3.8,46.1,13.8,68.7
				c33.3,75.4,107.7,78.2,123.1,147.3c12.9,57.6-32.8,82.4-37.6,156.1c-1.3,19.4,0.4,40.2,6.2,62.5c3,11.7,14,19.7,25.9,19
				l128.7-7.7c13.2-0.8,23.4-11.6,23.4-24.9v-427.9C2985.2,2633.6,2973.7,2622.5,2959.6,2622.9z"/>
			<linearGradient id="SVGID_66_" gradientUnits="userSpaceOnUse" x1="2757.1677" y1="2660.7268" x2="2891.5488" y2="3337.7007">
				<stop  offset="0" style="stop-color:#AB316D"/>
				<stop  offset="1" style="stop-color:#792D3D"/>
			</linearGradient>
			<polygon class="st67" points="2743.7,3113.5 2853.6,3107 2853.6,2625.8 2743.7,2628.9 			"/>
			<linearGradient id="SVGID_67_" gradientUnits="userSpaceOnUse" x1="2777.541" y1="2871.3618" x2="3015.5659" y2="2836.1611">
				<stop  offset="0" style="stop-color:#AB316D"/>
				<stop  offset="1" style="stop-color:#792D3D"/>
			</linearGradient>
			<polygon class="st68" points="2748.7,3113.2 2853.6,3107 2853.6,2625.8 2748.7,2628.7 			"/>
			<linearGradient id="SVGID_68_" gradientUnits="userSpaceOnUse" x1="2467.8579" y1="2866.1484" x2="2695.0459" y2="2832.5503">
				<stop  offset="0" style="stop-color:#AB316D"/>
				<stop  offset="1" style="stop-color:#792D3D"/>
			</linearGradient>
			<polygon class="st69" points="2539.4,2624.9 2539.4,3103.8 2438.8,3086.7 2438.8,2622.2 2470.8,2621.6 			"/>
			<linearGradient id="SVGID_69_" gradientUnits="userSpaceOnUse" x1="2617.5559" y1="2630.853" x2="3122.5725" y2="2556.1675">
				<stop  offset="0" style="stop-color:#AB316D"/>
				<stop  offset="1" style="stop-color:#792D3D"/>
			</linearGradient>
			<polygon class="st70" points="2549.7,2614 2856,2631.4 2745.9,2631.4 2478.1,2615.6 			"/>
			<g>
				<linearGradient id="SVGID_70_" gradientUnits="userSpaceOnUse" x1="2873.5361" y1="2482.624" x2="2748.4084" y2="2612.7568">
					<stop  offset="0" style="stop-color:#AB316D"/>
					<stop  offset="1" style="stop-color:#792D3D"/>
				</linearGradient>
				<path class="st71" d="M2698.8,2599.3c7.1-43.7,12.3-75.6,40.9-105.1c12-12.4,25.2-26,46.7-29.6c24.8-4.1,56.4,5.6,65.1,25.9
					c8.2,19.2-11.2,31.7-2.9,53.8c8.3,22.2,32.4,21.7,35,39.6c2.2,15.2-12.6,32.4-27.5,40.5c-25.8,13.9-40.5-5.7-90.9-2.5
					c-34.8,2.2-54.8,13.2-64.2,2.1C2696.4,2618.6,2696.8,2611.3,2698.8,2599.3z"/>
				<g class="st11">
					<linearGradient id="SVGID_71_" gradientUnits="userSpaceOnUse" x1="2893.6865" y1="2501.999" x2="2768.5581" y2="2632.1326">
						<stop  offset="0" style="stop-color:#AB316D"/>
						<stop  offset="1" style="stop-color:#792D3D"/>
					</linearGradient>
					<path class="st72" d="M2836.8,2582.2c-31.1-11.9-47.1-37.8-60.9-31.7c-12.3,5.4-4.8,28.2-19.2,46.7
						c-13.2,16.9-37.3,20.9-58.7,20.9c0.5,2.2,1.4,4.1,2.8,5.7c9.4,11.1,29.5,0.1,64.2-2.1c50.4-3.2,65.1,16.4,90.9,2.5
						c13.7-7.4,27.3-22.5,27.7-36.7C2869.2,2589.2,2853,2588.4,2836.8,2582.2z"/>
				</g>
			</g>
			<g>
				<linearGradient id="SVGID_72_" gradientUnits="userSpaceOnUse" x1="2577.8782" y1="2534.5" x2="2910.1938" y2="2485.3545">
					<stop  offset="0" style="stop-color:#AB316D"/>
					<stop  offset="1" style="stop-color:#792D3D"/>
				</linearGradient>
				<path class="st73" d="M2510.7,2491.3c20.9-16.5,43,1.9,68.8-16.3c26.1-18.4,18.5-47.9,38.8-56.3c23.5-9.7,58.4,20,75.1,38.8
					c42.4,47.8,62.3,132.8,28.8,162.7c-12.6,11.2-48.2,6.6-118.8-3.1c-80.8-11.1-92.4-19-100.1-29.4
					C2482.3,2559.6,2486.9,2510,2510.7,2491.3z"/>
				<g class="st11">
					<linearGradient id="SVGID_73_" gradientUnits="userSpaceOnUse" x1="2581.7441" y1="2560.6414" x2="2914.0593" y2="2511.4961">
						<stop  offset="0" style="stop-color:#AB316D"/>
						<stop  offset="1" style="stop-color:#792D3D"/>
					</linearGradient>
					<path class="st74" d="M2643.3,2527.2c-11.6-3.7-16.9,9.7-40.9,15c-4.4,1-46.6,9.8-69.2-16.7c-9-10.5-13.2-24.6-12.7-39.6
						c-3.3,1.1-6.6,2.9-9.8,5.4c-23.7,18.7-28.3,68.3-7.5,96.3c7.7,10.4,19.4,18.3,100.1,29.4c70.7,9.7,106.3,14.3,118.8,3.1
						c1.7-1.5,3.2-3.2,4.6-5c-17-0.6-34.7-4.7-47.6-17.1C2654.4,2574,2663.1,2533.4,2643.3,2527.2z"/>
				</g>
			</g>
			<linearGradient id="SVGID_74_" gradientUnits="userSpaceOnUse" x1="2515.1238" y1="2626.7253" x2="2798.4604" y2="2584.8235">
				<stop  offset="0" style="stop-color:#AB316D"/>
				<stop  offset="1" style="stop-color:#792D3D"/>
			</linearGradient>
			<polygon class="st75" points="2648.3,2623 2540.9,2627.1 2437.5,2622.2 2470.9,2621.6 2617.3,2619 			"/>
		</g>
	</g>
</g>
</svg>
